<?xml version="1.0" encoding="UTF-8" standalone="no"?><!DOCTYPE svg PUBLIC "-//W3C//DTD SVG 1.1//EN" "http://www.w3.org/Graphics/SVG/1.1/DTD/svg11.dtd"><svg width="100%" height="100%" viewBox="0 0 1471 281" version="1.1" xmlns="http://www.w3.org/2000/svg" xmlns:xlink="http://www.w3.org/1999/xlink" xml:space="preserve" xmlns:serif="http://www.serif.com/" style="fill-rule:evenodd;clip-rule:evenodd;stroke-linejoin:round;stroke-miterlimit:2;"><g><path d="M193.253,64.504c0.651,0 0.976,-0.325 0.976,-0.976l0,-26.761l26.843,-0c0.57,-0 0.895,-0.407 0.895,-0.977l0,-4.961c0,-0.57 -0.325,-0.895 -0.895,-0.895l-26.843,-0l0,-21.718l30.504,-0c0.65,-0 0.976,-0.407 0.976,-0.977l-0,-4.961c-0,-0.57 -0.326,-0.895 -0.976,-0.895l-36.767,-0c-0.651,-0 -0.976,0.325 -0.976,0.895l-0,61.25c-0,0.651 0.325,0.976 0.976,0.976l5.287,0Z" style="fill:#fff;fill-rule:nonzero;"/><path d="M239.293,64.504c0.569,0 0.895,-0.325 0.895,-0.976l-0,-22.613c-0,-7.809 6.588,-13.747 13.746,-13.747c1.302,0 2.197,0.163 2.929,0.244c0.569,0.082 0.976,-0.162 0.976,-0.813l-0,-4.962c-0,-0.569 -0.163,-0.895 -0.814,-0.976c-0.569,-0.163 -1.301,-0.163 -2.277,-0.163c-6.101,0 -11.632,3.254 -14.804,8.948l-0.326,-7.484c0,-0.65 -0.407,-0.894 -0.976,-0.894l-4.392,-0c-0.57,-0 -0.976,0.325 -0.976,0.894l-0,41.566c-0,0.651 0.406,0.976 0.976,0.976l5.043,0Z" style="fill:#fff;fill-rule:nonzero;"/><path d="M283.868,65.399c13.34,-0 22.125,-9.598 22.125,-22.613c0,-13.096 -8.785,-22.532 -22.125,-22.532c-13.34,0 -22.043,9.436 -22.043,22.532c-0,13.015 8.703,22.613 22.043,22.613Zm0,-6.426c-8.866,-0 -14.967,-6.507 -14.967,-16.187c0,-9.68 6.101,-16.187 14.967,-16.187c8.867,-0 14.967,6.507 14.967,16.187c0,9.68 -6.1,16.187 -14.967,16.187Z" style="fill:#fff;fill-rule:nonzero;"/><path d="M322.18,64.504c0.57,0 0.895,-0.325 0.895,-0.976l0,-21.962c0,-10.331 6.833,-14.967 12.933,-14.967c6.589,-0 9.924,4.23 9.924,12.526l0,24.403c0,0.651 0.326,0.976 0.976,0.976l5.043,0c0.488,0 0.895,-0.325 0.895,-0.976l0,-21.962c0,-10.331 6.752,-14.967 12.852,-14.967c6.67,-0 10.005,4.23 10.005,12.526l0,24.403c0,0.651 0.326,0.976 0.976,0.976l5.044,0c0.488,0 0.813,-0.325 0.813,-0.976l0,-27.249c0,-10.006 -5.694,-16.025 -15.048,-16.025c-6.345,0 -12.69,3.172 -15.699,9.598c-1.952,-6.1 -6.996,-9.598 -13.991,-9.598c-5.938,0 -11.957,3.01 -14.967,8.866l-0.325,-7.158c-0,-0.65 -0.407,-0.894 -0.976,-0.894l-4.393,-0c-0.569,-0 -0.976,0.325 -0.976,0.894l-0,41.566c-0,0.651 0.407,0.976 0.976,0.976l5.043,0Z" style="fill:#fff;fill-rule:nonzero;"/><path d="M452.734,65.724c17.977,0 30.585,-12.852 30.585,-32.781c-0,-20.01 -12.608,-32.78 -30.585,-32.78c-17.895,-0 -30.666,12.77 -30.666,32.78c0,19.929 12.771,32.781 30.666,32.781Zm0,-7.076c-14.641,-0 -23.182,-10.9 -23.182,-25.705c-0,-14.804 8.541,-25.704 23.182,-25.704c14.642,0 23.183,10.819 23.183,25.704c-0,14.805 -8.541,25.705 -23.183,25.705Z" style="fill:#fff;fill-rule:nonzero;"/><path d="M508.372,64.504c0.569,0 0.895,-0.244 1.057,-0.651l12.446,-31.154l12.12,31.154c0.162,0.488 0.569,0.651 1.057,0.651l3.173,0c0.406,0 0.894,-0.163 1.057,-0.651l14.967,-41.728c0.244,-0.813 -0.081,-1.057 -0.814,-1.057l-5.612,-0c-0.407,-0 -0.814,0.162 -0.976,0.732l-10.331,30.422l-11.876,-30.422c-0.244,-0.57 -0.569,-0.732 -1.057,-0.732l-3.172,-0c-0.488,-0 -0.814,0.162 -1.058,0.732l-12.201,30.747l-10.005,-30.747c-0.163,-0.57 -0.57,-0.732 -1.058,-0.732l-6.1,-0c-0.651,-0 -0.976,0.488 -0.814,1.057l14.967,41.728c0.244,0.488 0.651,0.651 1.058,0.651l3.172,0Z" style="fill:#fff;fill-rule:nonzero;"/><path d="M569.134,64.504c0.57,0 0.895,-0.325 0.895,-0.976l0,-21.962c0,-10.331 7.321,-14.967 13.503,-14.967c7.239,-0 10.493,4.23 10.493,12.526l0,24.403c0,0.651 0.325,0.976 0.976,0.976l5.043,0c0.488,0 0.814,-0.325 0.814,-0.976l-0,-27.249c-0,-10.006 -5.694,-16.025 -15.536,-16.025c-5.938,0 -12.283,2.928 -15.537,8.622l-0.325,-6.914c-0,-0.65 -0.407,-0.894 -0.976,-0.894l-4.393,-0c-0.569,-0 -0.976,0.325 -0.976,0.894l0,41.566c0,0.651 0.407,0.976 0.976,0.976l5.043,0Z" style="fill:#fff;fill-rule:nonzero;"/><path d="M632.174,65.399c8.379,-0 14.967,-3.742 18.709,-11.388c0.244,-0.488 0,-0.976 -0.569,-1.139l-4.23,-1.545c-0.569,-0.163 -0.976,-0.082 -1.22,0.488c-2.44,4.718 -6.345,7.239 -12.69,7.239c-7.971,0 -13.177,-5.368 -14.072,-14.072l32.862,0c0.57,0 0.977,-0.325 0.977,-0.976c0.162,-14.072 -6.914,-23.752 -19.767,-23.752c-12.933,0 -21.23,9.436 -21.23,22.532c0,13.015 8.216,22.613 21.23,22.613Zm0,-38.963c7.24,0 11.795,5.206 12.446,13.096l-26.436,0c1.138,-8.134 6.588,-13.096 13.99,-13.096Z" style="fill:#fff;fill-rule:nonzero;"/><path d="M667.477,64.504c0.569,0 0.895,-0.325 0.895,-0.976l-0,-22.613c-0,-7.809 6.588,-13.747 13.746,-13.747c1.302,0 2.197,0.163 2.929,0.244c0.569,0.082 0.976,-0.162 0.976,-0.813l-0,-4.962c-0,-0.569 -0.163,-0.895 -0.814,-0.976c-0.569,-0.163 -1.301,-0.163 -2.277,-0.163c-6.101,0 -11.632,3.254 -14.804,8.948l-0.326,-7.484c0,-0.65 -0.406,-0.894 -0.976,-0.894l-4.392,-0c-0.57,-0 -0.976,0.325 -0.976,0.894l-0,41.566c-0,0.651 0.406,0.976 0.976,0.976l5.043,0Z" style="fill:#fff;fill-rule:nonzero;"/><path d="M708.961,65.399c9.111,-0 15.537,-4.962 15.537,-12.445c-0,-6.508 -3.661,-10.656 -13.259,-13.178l-2.44,-0.651c-6.508,-1.708 -8.948,-3.497 -8.948,-6.832c-0,-3.742 3.254,-5.857 7.971,-5.857c4.637,0 7.972,2.115 9.843,6.263c0.244,0.489 0.569,0.733 1.22,0.489l4.474,-1.383c0.488,-0.163 0.732,-0.57 0.488,-1.058c-2.603,-7.158 -8.46,-10.493 -15.943,-10.493c-9.11,0 -15.13,5.043 -15.13,12.039c0,6.263 3.986,10.737 13.503,13.421l2.603,0.651c5.938,1.464 8.541,3.416 8.541,6.751c-0,4.067 -3.742,5.938 -8.704,5.938c-5.694,0 -9.435,-1.952 -11.713,-6.995c-0.163,-0.57 -0.488,-0.732 -1.139,-0.57l-4.474,1.221c-0.488,0.162 -0.732,0.65 -0.569,1.138c2.766,7.728 9.029,11.551 18.139,11.551Z" style="fill:#fff;fill-rule:nonzero;"/><path d="M741.091,64.504c0.57,0 0.895,-0.325 0.895,-0.976l0,-21.962c0,-10.331 7.321,-14.967 13.503,-14.967c7.239,-0 10.493,4.23 10.493,12.526l-0,24.403c-0,0.651 0.325,0.976 0.976,0.976l5.043,0c0.488,0 0.814,-0.325 0.814,-0.976l-0,-27.249c-0,-10.006 -5.694,-16.025 -15.537,-16.025c-5.775,0 -11.957,2.684 -15.292,8.134l0,-27.493c0,-0.57 -0.325,-0.895 -0.895,-0.895l-5.043,0c-0.569,0 -0.976,0.325 -0.976,0.895l0,62.633c0,0.651 0.407,0.976 0.976,0.976l5.043,0Z" style="fill:#fff;fill-rule:nonzero;"/><path d="M789.49,11.307c2.521,-0 4.555,-1.79 4.555,-4.393c-0,-2.603 -2.034,-4.392 -4.555,-4.392c-2.603,-0 -4.555,1.789 -4.555,4.392c-0,2.603 1.952,4.393 4.555,4.393Zm2.521,53.197c0.57,0 0.895,-0.325 0.895,-0.976l0,-41.566c0,-0.569 -0.325,-0.894 -0.895,-0.894l-5.043,-0c-0.569,-0 -0.976,0.325 -0.976,0.894l0,41.566c0,0.651 0.407,0.976 0.976,0.976l5.043,0Z" style="fill:#fff;fill-rule:nonzero;"/><path d="M812.266,83.213c0.569,-0 0.894,-0.326 0.894,-0.895l0,-25.297c3.173,5.124 9.029,8.378 15.618,8.378c12.771,-0 20.824,-9.436 20.824,-22.613c-0,-13.178 -8.053,-22.532 -20.824,-22.532c-6.751,0 -12.689,3.335 -15.862,8.622l-0.325,-6.914c-0,-0.65 -0.407,-0.894 -0.976,-0.894l-4.393,-0c-0.569,-0 -0.976,0.325 -0.976,0.894l0,60.356c0,0.569 0.407,0.895 0.976,0.895l5.044,-0Zm15.292,-24.24c-8.866,-0 -14.967,-6.507 -14.967,-16.187c-0,-9.68 6.101,-16.187 14.967,-16.187c8.785,-0 14.885,6.507 14.885,16.187c0,9.68 -6.1,16.187 -14.885,16.187Z" style="fill:#fff;fill-rule:nonzero;"/><path d="M902.962,65.399c4.636,-0 8.866,-2.196 11.632,-7.728c0.325,-0.65 0.162,-1.138 -0.326,-1.382l-3.904,-1.709c-0.488,-0.244 -0.895,-0.081 -1.139,0.489c-1.301,2.765 -3.254,3.904 -5.612,3.904c-4.312,-0 -6.264,-2.847 -6.264,-9.354l0,-22.369l12.039,-0c0.488,-0 0.813,-0.326 0.813,-0.814l0,-4.474c0,-0.569 -0.325,-0.894 -0.813,-0.894l-12.039,-0l0,-13.341c0,-0.488 -0.406,-0.813 -0.976,-0.813l-5.043,0c-0.569,0 -0.895,0.325 -0.895,0.813l0,13.341l-7.646,-0c-0.488,-0 -0.895,0.325 -0.895,0.894l0,4.474c0,0.488 0.407,0.814 0.895,0.814l7.646,-0l0,22.206c0,10.981 4.718,15.943 12.527,15.943Z" style="fill:#fff;fill-rule:nonzero;"/><path d="M939.728,65.399c13.34,-0 22.125,-9.598 22.125,-22.613c0,-13.096 -8.785,-22.532 -22.125,-22.532c-13.34,0 -22.043,9.436 -22.043,22.532c-0,13.015 8.703,22.613 22.043,22.613Zm0,-6.426c-8.866,-0 -14.967,-6.507 -14.967,-16.187c0,-9.68 6.101,-16.187 14.967,-16.187c8.867,-0 14.967,6.507 14.967,16.187c0,9.68 -6.1,16.187 -14.967,16.187Z" style="fill:#fff;fill-rule:nonzero;"/><path d="M1007.4,64.504c0.651,0 0.976,-0.325 0.976,-0.976l0,-61.25c0,-0.57 -0.325,-0.895 -0.976,-0.895l-5.287,-0c-0.651,-0 -0.976,0.325 -0.976,0.895l-0,61.25c-0,0.651 0.325,0.976 0.976,0.976l5.287,0Z" style="fill:#fff;fill-rule:nonzero;"/><path d="M1028.8,64.504c0.569,0 0.895,-0.325 0.895,-0.976l-0,-21.962c-0,-10.331 6.832,-14.967 12.933,-14.967c6.589,-0 9.924,4.23 9.924,12.526l-0,24.403c-0,0.651 0.325,0.976 0.976,0.976l5.043,0c0.488,0 0.895,-0.325 0.895,-0.976l-0,-21.962c-0,-10.331 6.751,-14.967 12.852,-14.967c6.67,-0 10.005,4.23 10.005,12.526l-0,24.403c-0,0.651 0.325,0.976 0.976,0.976l5.043,0c0.488,0 0.814,-0.325 0.814,-0.976l-0,-27.249c-0,-10.006 -5.694,-16.025 -15.049,-16.025c-6.344,0 -12.689,3.172 -15.699,9.598c-1.952,-6.1 -6.995,-9.598 -13.991,-9.598c-5.937,0 -11.957,3.01 -14.966,8.866l-0.326,-7.158c0,-0.65 -0.407,-0.894 -0.976,-0.894l-4.392,-0c-0.57,-0 -0.976,0.325 -0.976,0.894l-0,41.566c-0,0.651 0.406,0.976 0.976,0.976l5.043,0Z" style="fill:#fff;fill-rule:nonzero;"/><path d="M1108.35,83.213c0.57,-0 0.895,-0.326 0.895,-0.895l0,-25.297c3.172,5.124 9.029,8.378 15.618,8.378c12.77,-0 20.823,-9.436 20.823,-22.613c0,-13.178 -8.053,-22.532 -20.823,-22.532c-6.752,0 -12.69,3.335 -15.862,8.622l-0.325,-6.914c-0,-0.65 -0.407,-0.894 -0.976,-0.894l-4.393,-0c-0.569,-0 -0.976,0.325 -0.976,0.894l-0,60.356c-0,0.569 0.407,0.895 0.976,0.895l5.043,-0Zm15.293,-24.24c-8.867,-0 -14.967,-6.507 -14.967,-16.187c-0,-9.68 6.1,-16.187 14.967,-16.187c8.784,-0 14.885,6.507 14.885,16.187c0,9.68 -6.101,16.187 -14.885,16.187Z" style="fill:#fff;fill-rule:nonzero;"/><path d="M1173.59,65.399c6.914,-0 12.933,-3.416 16.024,-8.785l0.244,6.914c-0,0.732 0.407,0.976 0.976,0.976l4.392,0c0.57,0 0.895,-0.325 0.895,-0.976l0,-41.566c0,-0.569 -0.325,-0.894 -0.895,-0.894l-4.392,-0c-0.569,-0 -0.976,0.244 -0.976,0.894l-0.244,6.914c-3.091,-5.287 -9.11,-8.622 -16.024,-8.622c-12.608,0 -20.743,9.354 -20.743,22.532c0,13.177 8.135,22.613 20.743,22.613Zm1.301,-6.426c-8.866,-0 -14.967,-6.507 -14.967,-16.187c0,-9.68 6.101,-16.187 14.967,-16.187c8.866,-0 14.967,6.507 14.967,16.187c-0,9.68 -6.101,16.187 -14.967,16.187Z" style="fill:#fff;fill-rule:nonzero;"/><path d="M1228.09,65.399c8.947,-0 15.699,-3.986 18.871,-12.364c0.244,-0.488 0.081,-0.895 -0.488,-1.057l-4.637,-1.221c-0.569,-0.162 -0.894,0 -1.138,0.488c-2.197,5.044 -6.264,7.728 -12.283,7.728c-10.086,-0 -14.886,-7.565 -14.886,-16.187c0,-8.622 4.718,-16.187 14.886,-16.187c5.857,-0 9.761,2.521 12.039,7.321c0.244,0.488 0.569,0.732 1.138,0.569l4.23,-1.301c0.651,-0.163 0.814,-0.57 0.651,-1.058c-3.01,-7.971 -9.354,-11.876 -18.383,-11.876c-13.178,0 -21.637,9.273 -21.637,22.532c-0,13.177 8.378,22.613 21.637,22.613Z" style="fill:#fff;fill-rule:nonzero;"/><path d="M1271.77,65.399c4.637,-0 8.867,-2.196 11.632,-7.728c0.326,-0.65 0.163,-1.138 -0.325,-1.382l-3.905,-1.709c-0.488,-0.244 -0.894,-0.081 -1.138,0.489c-1.302,2.765 -3.254,3.904 -5.613,3.904c-4.311,-0 -6.263,-2.847 -6.263,-9.354l-0,-22.369l12.038,-0c0.488,-0 0.814,-0.326 0.814,-0.814l-0,-4.474c-0,-0.569 -0.326,-0.894 -0.814,-0.894l-12.038,-0l-0,-13.341c-0,-0.488 -0.407,-0.813 -0.976,-0.813l-5.044,0c-0.569,0 -0.894,0.325 -0.894,0.813l-0,13.341l-7.647,-0c-0.488,-0 -0.894,0.325 -0.894,0.894l-0,4.474c-0,0.488 0.406,0.814 0.894,0.814l7.647,-0l-0,22.206c-0,10.981 4.717,15.943 12.526,15.943Z" style="fill:#fff;fill-rule:nonzero;"/><path d="M1.623,251.792l32.813,-0c24.929,-0 35.48,-10.204 35.48,-26.32c0,-10.552 -5.797,-18.9 -17.392,-22.03c8.348,-3.363 12.754,-11.015 12.754,-20.059c0,-13.682 -9.971,-23.769 -32.001,-23.769l-31.654,-0c-1.043,-0 -1.623,0.579 -1.623,1.623l-0,88.931c-0,1.044 0.58,1.624 1.623,1.624Zm33.393,-15.769l-18.088,-0l0,-23.885l18.088,-0c11.247,-0 17.276,4.174 17.276,11.826c0,7.769 -6.029,12.059 -17.276,12.059Zm-2.435,-39.19l-15.653,-0l0,-21.335l15.653,0c9.74,0 15.305,3.711 15.305,10.668c0,6.956 -5.565,10.667 -15.305,10.667Z" style="fill:#fff;fill-rule:nonzero;"/><path d="M102.033,253.067c8.233,0 16.465,-3.362 21.219,-10.319l0.348,7.42c-0,1.16 0.811,1.624 1.739,1.624l11.826,-0c1.044,-0 1.624,-0.58 1.624,-1.624l-0,-61.799c-0,-1.044 -0.58,-1.624 -1.624,-1.624l-12.986,0c-1.043,0 -1.623,0.58 -1.623,1.624l0,31.537c0,12.406 -7.536,18.32 -15.537,18.32c-8.464,-0 -12.406,-4.986 -12.406,-15.769l-0,-34.088c-0,-1.044 -0.58,-1.624 -1.623,-1.624l-13.102,0c-0.928,0 -1.624,0.58 -1.624,1.624l0,40.697c0,14.957 8.696,24.001 23.769,24.001Z" style="fill:#fff;fill-rule:nonzero;"/><path d="M164.065,175.151c5.45,-0 9.508,-3.595 9.508,-9.044c-0,-5.334 -4.058,-9.044 -9.508,-9.044c-5.449,-0 -9.507,3.71 -9.507,9.044c-0,5.449 4.058,9.044 9.507,9.044Zm-8.116,13.218l-0,61.799c-0,1.044 0.58,1.624 1.623,1.624l12.986,-0c1.044,-0 1.623,-0.58 1.623,-1.624l0,-61.799c0,-1.044 -0.579,-1.624 -1.623,-1.624l-12.986,0c-1.043,0 -1.623,0.58 -1.623,1.624Z" style="fill:#fff;fill-rule:nonzero;"/><path d="M190.965,251.792l12.986,-0c1.044,-0 1.623,-0.58 1.623,-1.624l0,-90.902c0,-1.044 -0.579,-1.623 -1.623,-1.623l-12.986,-0c-1.044,-0 -1.623,0.579 -1.623,1.623l-0,90.902c-0,1.044 0.579,1.624 1.623,1.624Z" style="fill:#fff;fill-rule:nonzero;"/><path d="M246.967,253.067c9.044,0 16.581,-3.826 21.219,-10.203l0.463,7.304c0,1.16 0.696,1.624 1.74,1.624l11.71,-0c1.044,-0 1.74,-0.58 1.74,-1.624l-0,-90.902c-0,-1.044 -0.696,-1.623 -1.74,-1.623l-12.986,-0c-1.043,-0 -1.623,0.579 -1.623,1.623l0,35.364c-4.754,-5.798 -11.943,-9.16 -20.523,-9.16c-18.551,-0 -30.378,13.798 -30.378,33.856c0,19.943 11.827,33.741 30.378,33.741Zm-13.565,-33.741c-0,-11.246 7.188,-19.015 17.624,-19.015c10.435,0 17.623,7.769 17.623,19.015c0,11.131 -7.188,18.9 -17.623,18.9c-10.436,-0 -17.624,-7.769 -17.624,-18.9Z" style="fill:#fff;fill-rule:nonzero;"/><path d="M306.68,175.151c5.45,-0 9.508,-3.595 9.508,-9.044c-0,-5.334 -4.058,-9.044 -9.508,-9.044c-5.449,-0 -9.508,3.71 -9.508,9.044c0,5.449 4.059,9.044 9.508,9.044Zm-8.116,13.218l-0,61.799c-0,1.044 0.58,1.624 1.623,1.624l12.986,-0c1.044,-0 1.623,-0.58 1.623,-1.624l0,-61.799c0,-1.044 -0.579,-1.624 -1.623,-1.624l-12.986,0c-1.043,0 -1.623,0.58 -1.623,1.624Z" style="fill:#fff;fill-rule:nonzero;"/><path d="M331.261,251.792l12.986,-0c1.044,-0 1.623,-0.58 1.623,-1.624l0,-31.537c0,-12.407 7.537,-18.32 15.537,-18.32c8.464,0 12.407,4.986 12.407,15.769l-0,34.088c-0,1.044 0.579,1.624 1.623,1.624l13.102,-0c0.927,-0 1.623,-0.58 1.623,-1.624l0,-40.697c0,-14.957 -8.696,-24.001 -23.769,-24.001c-8.348,-0 -16.465,3.362 -21.218,10.319l-0.348,-7.42c-0,-1.16 -0.812,-1.624 -1.739,-1.624l-11.827,0c-1.044,0 -1.623,0.58 -1.623,1.624l-0,61.799c-0,1.044 0.579,1.624 1.623,1.624Z" style="fill:#fff;fill-rule:nonzero;"/><path d="M434.57,280.431c20.407,-0 34.436,-11.595 34.436,-32.234l0,-59.828c0,-1.044 -0.696,-1.624 -1.739,-1.624l-11.711,0c-1.043,0 -1.739,0.464 -1.739,1.624l-0.464,7.304c-4.638,-6.377 -12.174,-10.203 -21.218,-10.203c-18.552,-0 -30.378,13.798 -30.378,33.856c-0,19.943 11.826,33.741 30.378,33.741c8.58,0 15.769,-3.362 20.523,-9.16l-0,5.914c-0,11.478 -8.581,15.768 -18.668,15.768c-8.696,0 -13.798,-3.478 -16.928,-8.928c-0.348,-0.579 -0.812,-1.043 -1.392,-1.043c-0.231,-0 -0.463,0.116 -0.695,0.232l-10.551,3.826c-0.696,0.232 -1.16,0.696 -1.16,1.275c0,0.232 0.116,0.464 0.232,0.812c5.102,12.406 17.16,18.668 31.074,18.668Zm-16.001,-61.105c0,-11.246 7.189,-19.015 17.624,-19.015c10.435,0 17.624,7.769 17.624,19.015c0,11.131 -7.189,18.9 -17.624,18.9c-10.435,-0 -17.624,-7.769 -17.624,-18.9Z" style="fill:#fff;fill-rule:nonzero;"/><path d="M558.169,251.792l11.711,-0c0.812,-0 1.507,-0.348 1.855,-1.276l36.06,-89.047c0.464,-1.044 -0.116,-1.855 -1.276,-1.855l-15.537,-0c-0.927,-0 -1.739,0.347 -1.971,1.275l-24.812,67.365l-25.045,-67.365c-0.232,-0.928 -0.927,-1.275 -1.855,-1.275l-15.769,-0c-0.927,-0 -1.507,0.463 -1.507,1.159c-0,0.232 0.116,0.464 0.232,0.696l36.059,89.047c0.348,0.928 0.928,1.276 1.855,1.276Z" style="fill:#fff;fill-rule:nonzero;"/><path d="M630.984,253.067c9.044,0 16.581,-3.826 21.219,-10.203l0.463,7.304c0,1.16 0.696,1.624 1.74,1.624l11.71,-0c1.044,-0 1.739,-0.58 1.739,-1.624l0,-61.799c0,-1.044 -0.695,-1.624 -1.739,-1.624l-11.71,0c-1.044,0 -1.74,0.464 -1.74,1.624l-0.463,7.304c-4.638,-6.377 -12.175,-10.203 -21.219,-10.203c-18.551,-0 -30.378,13.798 -30.378,33.856c0,19.943 11.827,33.741 30.378,33.741Zm-13.566,-33.741c0,-11.246 7.189,-19.015 17.624,-19.015c10.436,0 17.624,7.769 17.624,19.015c0,11.131 -7.188,18.9 -17.624,18.9c-10.435,-0 -17.624,-7.769 -17.624,-18.9Z" style="fill:#fff;fill-rule:nonzero;"/><path d="M686.523,251.792l12.986,-0c1.044,-0 1.623,-0.58 1.623,-1.624l0,-90.902c0,-1.044 -0.579,-1.623 -1.623,-1.623l-12.986,-0c-1.044,-0 -1.623,0.579 -1.623,1.623l-0,90.902c-0,1.044 0.579,1.624 1.623,1.624Z" style="fill:#fff;fill-rule:nonzero;"/><path d="M741.482,253.067c8.232,0 16.464,-3.362 21.218,-10.319l0.348,7.42c0,1.16 0.812,1.624 1.739,1.624l11.827,-0c1.043,-0 1.623,-0.58 1.623,-1.624l0,-61.799c0,-1.044 -0.58,-1.624 -1.623,-1.624l-12.986,0c-1.044,0 -1.623,0.58 -1.623,1.624l-0,31.537c-0,12.406 -7.537,18.32 -15.537,18.32c-8.465,-0 -12.407,-4.986 -12.407,-15.769l0,-34.088c0,-1.044 -0.579,-1.624 -1.623,-1.624l-13.102,0c-0.928,0 -1.623,0.58 -1.623,1.624l-0,40.697c-0,14.957 8.696,24.001 23.769,24.001Z" style="fill:#fff;fill-rule:nonzero;"/><path d="M824.5,253.067c12.059,0 22.842,-5.218 28.639,-16.58c0.464,-1.044 0.116,-1.74 -0.928,-2.203l-11.131,-3.827c-0.927,-0.232 -1.623,-0.116 -2.203,0.696c-3.014,4.986 -7.652,7.421 -14.261,7.421c-8.696,-0 -14.146,-5.334 -15.653,-14.262l44.524,0c1.043,0 1.623,-0.58 1.739,-1.623c0.696,-22.378 -10.783,-37.219 -30.726,-37.219c-20.523,-0 -32.929,14.029 -32.929,33.856c0,19.711 12.406,33.741 32.929,33.741Zm13.334,-40.929l-28.639,-0c1.971,-7.769 7.537,-12.175 15.189,-12.175c6.957,0 11.943,4.522 13.45,12.175Z" style="fill:#fff;fill-rule:nonzero;"/><path d="M934.186,251.792l13.682,-0c1.043,-0 1.739,-0.58 1.739,-1.624l-0,-74.554l28.291,0c1.044,0 1.623,-0.695 1.623,-1.623l0,-12.754c0,-1.044 -0.579,-1.623 -1.623,-1.623l-73.858,-0c-0.928,-0 -1.508,0.579 -1.508,1.623l0,12.754c0,0.928 0.58,1.623 1.508,1.623l28.523,0l-0,74.554c-0,1.044 0.695,1.624 1.623,1.624Z" style="fill:#fff;fill-rule:nonzero;"/><path d="M1005.38,253.067c20.87,0 34.436,-14.03 34.436,-33.741c-0,-19.827 -13.566,-33.856 -34.436,-33.856c-20.871,-0 -34.437,14.029 -34.437,33.856c0,19.711 13.566,33.741 34.437,33.741Zm-17.624,-33.741c-0,-11.246 7.188,-19.015 17.624,-19.015c10.435,0 17.623,7.769 17.623,19.015c0,11.131 -7.188,18.9 -17.623,18.9c-10.436,-0 -17.624,-7.769 -17.624,-18.9Z" style="fill:#fff;fill-rule:nonzero;"/><path d="M1082.13,280.431c20.406,-0 34.436,-11.595 34.436,-32.234l-0,-59.828c-0,-1.044 -0.696,-1.624 -1.739,-1.624l-11.711,0c-1.044,0 -1.739,0.464 -1.739,1.624l-0.464,7.304c-4.638,-6.377 -12.174,-10.203 -21.218,-10.203c-18.552,-0 -30.379,13.798 -30.379,33.856c0,19.943 11.827,33.741 30.379,33.741c8.58,0 15.768,-3.362 20.522,-9.16l0,5.914c0,11.478 -8.58,15.768 -18.667,15.768c-8.696,0 -13.798,-3.478 -16.928,-8.928c-0.348,-0.579 -0.812,-1.043 -1.392,-1.043c-0.232,-0 -0.464,0.116 -0.696,0.232l-10.551,3.826c-0.695,0.232 -1.159,0.696 -1.159,1.275c-0,0.232 0.116,0.464 0.232,0.812c5.101,12.406 17.16,18.668 31.074,18.668Zm-16.001,-61.105c-0,-11.246 7.189,-19.015 17.624,-19.015c10.435,0 17.624,7.769 17.624,19.015c-0,11.131 -7.189,18.9 -17.624,18.9c-10.435,-0 -17.624,-7.769 -17.624,-18.9Z" style="fill:#fff;fill-rule:nonzero;"/><path d="M1162.72,253.067c12.058,0 22.841,-5.218 28.639,-16.58c0.463,-1.044 0.116,-1.74 -0.928,-2.203l-11.131,-3.827c-0.927,-0.232 -1.623,-0.116 -2.203,0.696c-3.014,4.986 -7.652,7.421 -14.261,7.421c-8.696,-0 -14.146,-5.334 -15.653,-14.262l44.524,0c1.043,0 1.623,-0.58 1.739,-1.623c0.695,-22.378 -10.783,-37.219 -30.726,-37.219c-20.523,-0 -32.929,14.029 -32.929,33.856c-0,19.711 12.406,33.741 32.929,33.741Zm13.334,-40.929l-28.639,-0c1.971,-7.769 7.536,-12.175 15.189,-12.175c6.957,0 11.942,4.522 13.45,12.175Z" style="fill:#fff;fill-rule:nonzero;"/><path d="M1230.89,253.067c7.42,0 14.609,-3.131 19.247,-11.711c0.348,-0.463 0.464,-0.927 0.464,-1.275c-0,-0.58 -0.348,-1.044 -0.928,-1.391l-9.855,-4.406c-0.928,-0.464 -1.74,-0.116 -2.203,0.811c-1.276,2.203 -2.783,3.131 -4.87,3.131c-5.102,-0 -7.305,-3.479 -7.305,-10.551l0,-26.32l15.421,-0c1.044,-0 1.623,-0.696 1.623,-1.624l0,-11.362c0,-1.044 -0.579,-1.624 -1.623,-1.624l-15.421,0l0,-17.508c0,-0.927 -0.696,-1.623 -1.623,-1.623l-13.102,-0c-1.044,-0 -1.623,0.696 -1.623,1.623l-0,17.508l-9.508,0c-1.044,0 -1.623,0.58 -1.623,1.624l-0,11.362c-0,0.928 0.579,1.624 1.623,1.624l9.508,-0l-0,25.276c-0,17.624 7.768,26.436 21.798,26.436Z" style="fill:#fff;fill-rule:nonzero;"/><path d="M1261.04,251.792l12.986,-0c1.044,-0 1.623,-0.58 1.623,-1.624l0,-31.537c0,-12.407 7.537,-18.32 15.537,-18.32c8.464,0 12.407,4.986 12.407,15.769l-0,34.088c-0,1.044 0.579,1.624 1.623,1.624l13.102,-0c0.927,-0 1.623,-0.58 1.623,-1.624l0,-40.697c0,-14.957 -8.696,-24.001 -23.769,-24.001c-7.884,-0 -15.537,3.014 -20.523,9.276l0,-35.48c0,-1.044 -0.579,-1.623 -1.623,-1.623l-12.986,-0c-1.044,-0 -1.623,0.579 -1.623,1.623l-0,90.902c-0,1.044 0.579,1.624 1.623,1.624Z" style="fill:#fff;fill-rule:nonzero;"/><path d="M1365.62,253.067c12.059,0 22.842,-5.218 28.639,-16.58c0.464,-1.044 0.116,-1.74 -0.927,-2.203l-11.131,-3.827c-0.928,-0.232 -1.624,-0.116 -2.203,0.696c-3.015,4.986 -7.653,7.421 -14.262,7.421c-8.696,-0 -14.145,-5.334 -15.653,-14.262l44.524,0c1.044,0 1.623,-0.58 1.739,-1.623c0.696,-22.378 -10.783,-37.219 -30.726,-37.219c-20.522,-0 -32.929,14.029 -32.929,33.856c0,19.711 12.407,33.741 32.929,33.741Zm13.334,-40.929l-28.639,-0c1.971,-7.769 7.537,-12.175 15.189,-12.175c6.957,0 11.943,4.522 13.45,12.175Z" style="fill:#fff;fill-rule:nonzero;"/><path d="M1410.15,251.792l12.986,-0c1.044,-0 1.623,-0.58 1.623,-1.624l0,-32.001c0,-10.319 8.348,-16.349 17.16,-16.349c2.667,0 4.638,0.464 6.378,0.464c0.811,0 1.391,-0.348 1.391,-1.391l-0,-12.87c-0,-0.928 -0.348,-1.508 -1.391,-1.74c-1.276,-0.231 -2.551,-0.463 -4.406,-0.463c-7.769,-0 -15.421,3.71 -19.827,10.667l-0.348,-8.116c-0,-1.16 -0.812,-1.624 -1.739,-1.624l-11.827,0c-1.044,0 -1.623,0.58 -1.623,1.624l-0,61.799c-0,1.044 0.579,1.624 1.623,1.624Z" style="fill:#fff;fill-rule:nonzero;"/><path d="M1460.35,253.067c5.797,0 10.203,-4.174 10.203,-9.971c0,-5.798 -4.406,-9.856 -10.203,-9.856c-5.797,0 -10.203,4.058 -10.203,9.856c-0,5.797 4.406,9.971 10.203,9.971Z" style="fill:#fff;fill-rule:nonzero;"/></g></svg>