<?xml version="1.0" encoding="UTF-8" standalone="no"?><!DOCTYPE svg PUBLIC "-//W3C//DTD SVG 1.1//EN" "http://www.w3.org/Graphics/SVG/1.1/DTD/svg11.dtd"><svg width="100%" height="100%" viewBox="0 0 1127 1076" version="1.1" xmlns="http://www.w3.org/2000/svg" xmlns:xlink="http://www.w3.org/1999/xlink" xml:space="preserve" xmlns:serif="http://www.serif.com/" style="fill-rule:evenodd;clip-rule:evenodd;stroke-linecap:round;stroke-linejoin:round;stroke-miterlimit:1.5;"><g><circle cx="563.289" cy="359.993" r="358.372" style="fill:#e6e8ec;"/><path d="M563.289,0c198.685,0 359.993,161.308 359.993,359.993c-0,198.686 -161.308,359.993 -359.993,359.993c-198.686,0 -359.993,-161.307 -359.993,-359.993c-0,-198.685 161.307,-359.993 359.993,-359.993Zm-0,3.243c-196.896,0 -356.75,159.854 -356.75,356.75c-0,196.896 159.854,356.75 356.75,356.75c196.896,0 356.75,-159.854 356.75,-356.75c-0,-196.896 -159.854,-356.75 -356.75,-356.75Z" style="fill:#fff;"/><circle cx="359.993" cy="715.675" r="358.372" style="fill:#e6e8ec;"/><path d="M359.993,355.682c198.686,-0 359.993,161.307 359.993,359.993c0,198.686 -161.307,359.993 -359.993,359.993c-198.685,0 -359.993,-161.307 -359.993,-359.993c0,-198.686 161.308,-359.993 359.993,-359.993Zm0,3.243c-196.896,0 -356.75,159.854 -356.75,356.75c0,196.896 159.854,356.75 356.75,356.75c196.896,0 356.75,-159.854 356.75,-356.75c0,-196.896 -159.854,-356.75 -356.75,-356.75Z" style="fill:#fff;"/><circle cx="766.585" cy="715.675" r="358.372" style="fill:#e6e8ec;"/><path d="M766.585,355.682c198.685,-0 359.993,161.307 359.993,359.993c-0,198.686 -161.308,359.993 -359.993,359.993c-198.686,0 -359.994,-161.307 -359.994,-359.993c0,-198.686 161.308,-359.993 359.994,-359.993Zm-0,3.243c-196.896,0 -356.751,159.854 -356.751,356.75c0,196.896 159.855,356.75 356.751,356.75c196.895,0 356.75,-159.854 356.75,-356.75c-0,-196.896 -159.855,-356.75 -356.75,-356.75Z" style="fill:#fff;"/><path d="M409.615,683.787c16.156,-182.877 169.925,-326.484 356.97,-326.484c54.983,0 107.091,12.41 153.673,34.578c-16.156,182.877 -169.924,326.484 -356.969,326.484c-54.984,-0 -107.092,-12.41 -153.674,-34.578Z" style="fill:#d2d6dd;stroke:#fff;stroke-width:3.24px;"/><path d="M563.289,1010.77c-93.656,-64.676 -155.076,-172.769 -155.076,-295.093c-0,-122.324 61.42,-230.416 155.076,-295.093c93.656,64.677 155.076,172.769 155.076,295.093c-0,122.324 -61.42,230.417 -155.076,295.093Z" style="fill:#d2d6dd;stroke:#fff;stroke-width:3.24px;"/><path d="M716.963,683.787c-46.583,22.168 -98.691,34.578 -153.674,34.578c-187.045,-0 -340.814,-143.607 -356.97,-326.484c46.583,-22.168 98.691,-34.578 153.674,-34.578c187.045,0 340.814,143.607 356.97,326.484Z" style="fill:#d2d6dd;stroke:#fff;stroke-width:3.24px;"/><path d="M563.289,420.582c85.429,58.995 144.036,154.113 153.674,263.205c-46.583,22.168 -98.691,34.578 -153.674,34.578c-54.984,-0 -107.092,-12.41 -153.674,-34.578c9.638,-109.092 68.245,-204.21 153.674,-263.205Z" style="fill:#313f52;stroke:#fff;stroke-width:3.24px;"/></g><path d="M335.867,169.608c1.148,-0.616 2.337,-1.395 3.527,-2.338l-0,1.722c-0,0.369 0.205,0.574 0.574,0.574l11.688,0c0.369,0 0.574,-0.205 0.574,-0.574l-0,-1.845c1.148,0.903 2.337,1.683 3.527,2.298c0.328,0.165 0.574,0.082 0.738,-0.287l1.722,-4.021c0.164,-0.37 0.041,-0.616 -0.287,-0.781c-4.06,-1.808 -7.546,-4.847 -9.637,-8.052c-0.164,-0.246 -0.369,-0.37 -0.697,-0.37l-4.142,0c-0.328,0 -0.533,0.124 -0.697,0.411c-1.518,3.126 -4.84,6.455 -8.941,8.3l0,-1.394c0,-0.369 -0.205,-0.574 -0.574,-0.574l-12.426,-0c-0.369,-0 -0.574,0.205 -0.574,0.574l0,3.157c0,0.37 0.205,0.575 0.574,0.575l12.426,-0c0.164,-0 0.328,-0.041 0.41,-0.164l1.436,2.542c0.123,0.205 0.287,0.288 0.492,0.288c0.082,-0 0.205,-0 0.287,-0.041Zm-14.6,11.359l0,10.704c0,0.369 0.205,0.574 0.574,0.574l10.786,-0c0.369,-0 0.574,-0.205 0.574,-0.574l0,-10.704c0,-0.369 -0.205,-0.574 -0.574,-0.574l-10.786,-0c-0.369,-0 -0.574,0.205 -0.574,0.574Zm0.41,-5.741l0,2.624c0,0.41 0.206,0.574 0.575,0.574l10.047,0c0.369,0 0.574,-0.164 0.574,-0.574l0,-2.624c0,-0.369 -0.205,-0.575 -0.574,-0.575l-10.047,0c-0.369,0 -0.575,0.206 -0.575,0.575Zm0,-5.742l0,2.666c0,0.369 0.206,0.574 0.575,0.574l10.047,-0c0.369,-0 0.574,-0.205 0.574,-0.574l0,-2.666c0,-0.369 -0.205,-0.574 -0.574,-0.574l-10.047,0c-0.369,0 -0.575,0.205 -0.575,0.574Zm0,-12.139l0,2.83c0,0.369 0.206,0.574 0.575,0.574l10.088,0c0.369,0 0.574,-0.205 0.574,-0.574l0,-2.83c0,-0.369 -0.205,-0.574 -0.574,-0.574l-10.088,0c-0.369,0 -0.575,0.205 -0.575,0.574Zm3.691,31.004l0,-4.306l3.814,-0l0,4.306l-3.814,-0Zm9.925,-16.322l-0,20.468c-0,0.372 0.205,0.578 0.574,0.578l2.83,0c0.369,0 0.574,-0.206 0.574,-0.578l-0,-8.001l2.214,-0l0,6.972c0,0.41 0.205,0.575 0.574,0.575l2.133,-0c0.369,-0 0.574,-0.165 0.574,-0.575l0,-6.972l2.133,-0l-0,6.849c-0,0.369 0.164,0.574 0.574,0.574l2.132,-0c0.369,-0 0.574,-0.205 0.574,-0.574l0,-6.849l2.338,-0l-0,2.707c-0,1.066 -0.574,1.394 -1.517,1.394c-0.328,0.041 -0.534,0.164 -0.534,0.451l0.041,0.205l0.985,3.24c0.082,0.287 0.287,0.451 0.615,0.451l0.041,-0c3.65,-0.164 4.429,-1.599 4.429,-5.536l-0,-15.379c-0,-0.369 -0.205,-0.574 -0.574,-0.574l-20.136,-0c-0.369,-0 -0.574,0.205 -0.574,0.574Zm3.978,8.694l-0,-4.798l2.214,-0l0,4.798l-2.214,-0Zm10.949,-15.256l-8.735,0c1.764,-1.725 3.281,-3.614 4.142,-5.258c1.067,1.644 2.707,3.533 4.593,5.258Zm-5.454,15.256l0,-4.798l2.133,-0l-0,4.798l-2.133,-0Zm5.413,-0l0,-4.798l2.338,-0l-0,4.798l-2.338,-0Z" style="fill:#152536;fill-rule:nonzero;"/><path d="M362.318,162.225l3.527,0l0,7.177l-3.158,0c-0.41,0 -0.574,0.205 -0.574,0.574l0,3.65c0,0.369 0.164,0.574 0.574,0.574l3.158,0l0,9.228c-1.558,0.41 -3.035,0.82 -4.306,1.107c-0.328,0.041 -0.492,0.246 -0.492,0.492c0,0.082 0,0.123 0.041,0.164l0.656,3.937c0.041,0.287 0.205,0.451 0.451,0.451l0.246,0c3.773,-1.066 8.038,-2.502 11.893,-4.142c0.328,-0.123 0.451,-0.328 0.451,-0.656l0,-3.855c0,-0.328 -0.123,-0.492 -0.369,-0.492c-0.082,-0 -0.164,-0 -0.287,0.082c-0.902,0.41 -2.05,0.861 -3.322,1.312l0,-7.628l3.076,0c0.369,0 0.574,-0.205 0.574,-0.574l0,-3.65c0,-0.369 -0.205,-0.574 -0.574,-0.574l-3.076,0l0,-7.177l3.363,0c0.369,0 0.574,-0.205 0.574,-0.574l0,-3.65c0,-0.369 -0.205,-0.574 -0.574,-0.574l-11.852,0c-0.369,0 -0.574,0.205 -0.574,0.574l0,3.65c0,0.369 0.205,0.574 0.574,0.574Zm11.688,25.673l0,3.527c0,0.369 0.205,0.574 0.574,0.574l23.704,-0c0.369,-0 0.574,-0.205 0.574,-0.574l0,-3.527c0,-0.369 -0.205,-0.574 -0.574,-0.574l-9.268,-0l-0,-3.24l7.915,-0c0.369,-0 0.574,-0.205 0.574,-0.574l-0,-3.322c-0,-0.369 -0.205,-0.574 -0.574,-0.574l-7.915,-0l-0,-2.871l7.956,-0c0.369,-0 0.574,-0.205 0.574,-0.574l-0,-18.824c-0,-0.369 -0.205,-0.574 -0.574,-0.574l-20.464,0c-0.369,0 -0.574,0.205 -0.574,0.574l-0,18.824c-0,0.369 0.205,0.574 0.574,0.574l7.751,-0l-0,2.871l-7.833,-0c-0.369,-0 -0.574,0.205 -0.574,0.574l-0,3.322c-0,0.369 0.205,0.574 0.574,0.574l7.833,-0l-0,3.24l-9.679,-0c-0.369,-0 -0.574,0.205 -0.574,0.574Zm6.521,-15.461l-0,-3.814l3.896,-0l-0,3.814l-3.896,-0Zm-0,-7.751l-0,-3.527l3.896,0l-0,3.527l-3.896,0Zm8.325,7.751l-0,-3.814l3.855,-0l-0,3.814l-3.855,-0Zm-0,-7.751l-0,-3.527l3.855,0l-0,3.527l-3.855,0Z" style="fill:#152536;fill-rule:nonzero;"/><path d="M418.543,190.686l0,-21.899l2.502,1.435c0.123,0.082 0.246,0.123 0.369,0.123c0.164,0 0.287,-0.082 0.41,-0.246c1.23,-1.435 2.173,-3.075 2.994,-4.839l8.284,0c0.041,1.764 0.082,4.06 0.082,6.521c-0,3.158 -0.082,6.602 -0.328,9.719c-0.411,4.716 -2.133,6.398 -8.49,6.152c-0.328,-0 -0.533,0.123 -0.533,0.369c0,0.082 0,0.164 0.041,0.246l1.518,4.149c0.123,0.329 0.328,0.454 0.656,0.454c8.325,0.205 11.401,-2.84 12.016,-10.878c0.287,-4.06 0.369,-8.694 0.369,-12.877c-0,-3.076 -0.041,-5.905 -0.082,-8.161c-0,-0.369 -0.205,-0.574 -0.574,-0.574l-11.032,-0c0.41,-1.11 0.82,-2.427 1.066,-3.538c0.082,-0.37 -0.123,-0.617 -0.492,-0.658l-3.814,-0.452c-0.369,-0.042 -0.615,0.082 -0.697,0.452c-0.82,3.538 -2.255,7.19 -4.265,10.019l0,-4.634c0,-0.369 -0.205,-0.574 -0.574,-0.574l-5.536,0c0.615,-1.274 1.189,-2.878 1.599,-4.194c0.123,-0.371 -0.041,-0.617 -0.451,-0.658l-3.978,-0.453c-0.369,-0.041 -0.574,0.123 -0.656,0.453c-0.369,1.439 -1.026,3.248 -1.764,4.852l-2.87,0c-0.37,0 -0.575,0.205 -0.575,0.574l0,29.117c0,0.369 0.205,0.575 0.575,0.575l13.656,-0c0.369,-0 0.574,-0.206 0.574,-0.575Zm-4.757,-17.224l-5.29,0l-0,-7.874l5.29,0l-0,7.874Zm11.729,7.956c0.082,0.246 0.205,0.369 0.41,0.369c0.082,0 0.205,-0.041 0.328,-0.082l3.568,-1.722c0.246,-0.123 0.369,-0.328 0.369,-0.533c-0,-0.082 -0,-0.164 -0.041,-0.246c-1.066,-2.912 -2.748,-6.029 -4.675,-8.489c-0.123,-0.165 -0.287,-0.247 -0.451,-0.247c-0.082,0 -0.205,0 -0.328,0.082l-3.322,1.641c-0.205,0.082 -0.328,0.246 -0.328,0.41c-0,0.123 0.082,0.287 0.164,0.41c1.886,2.502 3.363,5.495 4.306,8.407Zm-11.729,5.167l-5.29,0l-0,-8.366l5.29,0l-0,8.366Z" style="fill:#152536;fill-rule:nonzero;"/><path d="M446.43,157.304l-0,18.25c-0,0.369 0.205,0.574 0.574,0.574l30.06,-0c0.369,-0 0.574,-0.205 0.574,-0.574l0,-18.25c0,-0.369 -0.205,-0.574 -0.574,-0.574l-30.06,0c-0.369,0 -0.574,0.205 -0.574,0.574Zm13.041,7.136l-7.833,-0l0,-3.527l7.833,0l0,3.527Zm12.959,-0l-7.956,-0l0,-3.527l7.956,0l0,3.527Zm-12.959,7.546l-7.833,-0l0,-3.65l7.833,-0l0,3.65Zm12.959,-0l-7.956,-0l0,-3.65l7.956,-0l0,3.65Zm-13.574,7.3c2.132,1.312 4.347,3.116 5.659,4.757c0.123,0.164 0.287,0.246 0.41,0.246c0.123,-0 0.246,-0.041 0.369,-0.164l2.789,-2.543c0.164,-0.123 0.205,-0.287 0.205,-0.41c0,-0.123 -0.041,-0.287 -0.164,-0.41c-1.599,-1.64 -4.06,-3.322 -6.11,-4.265c-0.123,-0.041 -0.246,-0.082 -0.369,-0.082c-0.123,-0 -0.288,0.041 -0.411,0.164l-2.419,1.927c-0.164,0.123 -0.246,0.246 -0.246,0.411c-0,0.123 0.082,0.246 0.287,0.369Zm17.183,10.006c0.082,0.287 0.246,0.451 0.451,0.451c0.082,0 0.164,0 0.246,-0.041l3.855,-1.558c0.246,-0.082 0.41,-0.246 0.41,-0.492c0,-0.041 0,-0.123 -0.041,-0.205c-0.943,-3.035 -2.788,-6.562 -4.962,-9.31c-0.164,-0.164 -0.328,-0.287 -0.533,-0.287c-0.082,0 -0.164,0 -0.246,0.041l-3.404,1.231c-0.246,0.082 -0.369,0.246 -0.369,0.41c-0,0.123 0.041,0.246 0.123,0.369c1.927,2.501 3.568,6.028 4.47,9.391Zm-32.562,0l3.773,1.599c0.328,0.123 0.615,0.082 0.779,-0.246c1.436,-2.624 2.707,-6.725 3.24,-10.375c0.082,-0.41 -0.123,-0.697 -0.451,-0.779l-3.568,-0.985c-0.369,-0.123 -0.615,0.082 -0.697,0.452c-0.574,3.608 -1.805,6.971 -3.363,9.555c-0.205,0.328 -0.082,0.615 0.287,0.779Zm9.104,-10.093l0,8.33c0,3.321 1.641,4.265 5.373,4.47c0.861,0.041 2.132,0.082 3.444,0.082c1.6,-0 3.24,-0.041 4.307,-0.082c5.946,-0.287 7.34,-1.477 7.709,-6.727c0.041,-0.328 -0.123,-0.574 -0.41,-0.697l-3.937,-1.724c-0.41,-0.164 -0.615,0.041 -0.656,0.493c-0.205,3.159 -0.902,3.816 -2.829,3.939c-0.862,0.041 -1.969,0.041 -3.076,0.041c-1.108,-0 -2.174,-0 -2.994,-0.041c-1.435,-0.082 -1.804,-0.452 -1.804,-1.847l-0,-6.237c-0,-0.37 -0.205,-0.575 -0.575,-0.575l-3.978,0c-0.369,0 -0.574,0.205 -0.574,0.575Z" style="fill:#152536;fill-rule:nonzero;"/><path d="M489.203,163.251l9.843,-0l-0,3.198l-13.329,0c-0.41,0 -0.574,0.206 -0.574,0.575l0,3.198c0,0.369 0.164,0.575 0.574,0.575l15.912,-0c-5.044,2.009 -11.359,3.526 -17.06,4.347c-0.328,0.041 -0.492,0.205 -0.492,0.451c0,0.082 0.041,0.164 0.082,0.287l1.845,4.06c0.124,0.246 0.288,0.369 0.534,0.369c0.041,-0 0.123,-0 0.205,-0.041c1.927,-0.451 4.019,-1.107 6.151,-1.805c-0.451,1.846 -1.025,3.814 -1.681,5.537c-0.123,0.369 0.041,0.656 0.492,0.656l20.177,-0c-0,0.492 -0,1.148 -0.164,1.763c-0.287,1.313 -2.092,2.01 -9.228,2.01l-3.69,-0.041c-0.369,-0.041 -0.575,0.123 -0.575,0.41c0,0.041 0.041,0.123 0.082,0.246l1.395,3.486c0.123,0.328 0.328,0.451 0.656,0.451l1.804,0.041c10.909,-0 14.477,-1.107 15.174,-6.111c0.246,-1.927 0.287,-4.265 0.287,-5.823c0,-0.369 -0.205,-0.533 -0.574,-0.533l-19.111,-0c0.123,-0.533 0.328,-1.189 0.493,-1.969c6.397,-0.082 14.968,-0.533 20.505,-1.394c0.287,-0.041 0.41,-0.205 0.41,-0.451c-0,-0.082 -0,-0.164 -0.041,-0.246l-1.272,-3.281c-0.082,-0.287 -0.287,-0.41 -0.533,-0.41l-0.164,0c-4.265,0.82 -9.514,1.312 -14.189,1.599c2.624,-1.189 5.085,-2.419 7.094,-3.608l10.622,-0c0.369,-0 0.574,-0.206 0.574,-0.575l0,-3.198c0,-0.369 -0.205,-0.575 -0.574,-0.575l-5.454,0c2.091,-1.763 3.978,-3.731 5.372,-5.536c0.123,-0.123 0.164,-0.246 0.164,-0.369c-0,-0.164 -0.123,-0.328 -0.328,-0.451l-4.019,-2.136c-0.123,-0.042 -0.246,-0.083 -0.328,-0.083c-0.164,-0 -0.328,0.083 -0.451,0.288c-0.902,1.275 -1.805,2.464 -2.83,3.612l0,-2.132c0,-0.369 -0.205,-0.574 -0.574,-0.574l-8.161,-0l-0,-2.924c-0,-0.37 -0.205,-0.576 -0.574,-0.576l-4.06,0c-0.369,0 -0.574,0.206 -0.574,0.576l-0,2.924l-9.843,-0c-0.369,-0 -0.574,0.205 -0.574,0.574l0,3.035c0,0.369 0.205,0.574 0.574,0.574Zm18.619,3.198l-3.568,0l-0,-3.28l7.464,-0c-1.19,1.189 -2.461,2.255 -3.896,3.28Z" style="fill:#152536;fill-rule:nonzero;"/><path d="M527.999,168.008l11.441,-0c-0.82,8.448 -4.101,15.297 -13.451,19.603c-0.246,0.123 -0.369,0.246 -0.369,0.451c0,0.082 0.041,0.205 0.123,0.328l3.035,4.267c0.123,0.206 0.287,0.289 0.451,0.289c0.123,-0 0.205,-0.041 0.328,-0.083c10.171,-5.088 14.518,-14.07 15.502,-24.855l10.047,-0c0,2.46 0,7.956 -0.246,11.852c-0.369,5.659 -2.05,7.3 -7.874,7.3c-0.697,-0 -1.476,-0.041 -2.337,-0.083c-0.328,-0.041 -0.533,0.124 -0.533,0.411c-0,0.082 -0,0.164 0.041,0.246l1.517,4.265c0.123,0.328 0.328,0.492 0.656,0.492c9.843,0.207 13.533,-1.887 14.108,-12.18c0.246,-4.511 0.287,-9.966 0.287,-14.19l-0,-2.87c-0,-0.369 -0.205,-0.574 -0.574,-0.574l-14.846,-0l-0,-6.495c-0,-0.37 -0.205,-0.534 -0.574,-0.534l-4.593,-0c-0.369,-0 -0.574,0.206 -0.574,0.575c0.041,2.014 0.082,4.358 0.082,6.454l-11.647,-0c-0.369,-0 -0.574,0.205 -0.574,0.574l-0,4.183c-0,0.369 0.205,0.574 0.574,0.574Z" style="fill:#152536;fill-rule:nonzero;"/><path d="M599.274,190.276l0.123,-4.511c0,-0.37 -0.164,-0.575 -0.451,-0.575l-0.164,0.041c-3.527,0.616 -8.243,1.19 -12.385,1.19c-2.83,0 -5.331,-0.246 -7.013,-0.943c-1.558,-0.616 -2.583,-1.888 -2.583,-3.447c-0,-1.888 1.476,-4.145 5.249,-5.91c3.937,-1.969 10.047,-3.487 16.117,-4.39c0.287,-0.041 0.451,-0.205 0.451,-0.451l-0.041,-0.247l-1.517,-4.391c-0.082,-0.287 -0.247,-0.451 -0.493,-0.451l-0.041,0l-0.164,0.041c-3.978,0.697 -7.997,1.641 -11.441,2.791c-0.493,-2.34 -0.739,-5.171 -0.739,-8.905c0,-0.657 0,-1.396 0.041,-2.134c0,-0.37 -0.205,-0.616 -0.574,-0.616l-4.962,0c-0.369,0 -0.574,0.246 -0.574,0.616c0.123,5.171 0.287,9.643 1.394,13.255c-6.11,3.036 -8.694,7.263 -8.694,11.038c0,3.693 2.502,6.974 6.644,8.327c2.747,0.862 6.069,1.231 9.719,1.231c3.65,-0 7.587,-0.369 11.565,-0.944c0.369,-0.082 0.533,-0.287 0.533,-0.615Z" style="fill:#152536;fill-rule:nonzero;"/><path d="M623.183,174.241l7.423,0l-0,2.338l-8.161,-0c-0.369,-0 -0.574,0.205 -0.574,0.574l-0,3.281c-0,0.369 0.205,0.574 0.574,0.574l6.52,0c-2.255,2.546 -4.962,4.641 -7.751,5.996c-0.205,0.082 -0.328,0.247 -0.328,0.452c0,0.082 0.041,0.206 0.082,0.329l2.01,3.532c0.123,0.206 0.246,0.329 0.451,0.329c0.082,-0 0.205,-0.041 0.328,-0.123c2.543,-1.643 4.962,-4.108 6.972,-7.065l-0.164,8.091c-0,0.37 0.205,0.575 0.574,0.575l3.65,-0c0.369,-0 0.574,-0.205 0.574,-0.575l-0.123,-8.132c1.968,2.752 4.347,5.134 6.766,6.818c0.124,0.082 0.206,0.123 0.329,0.123c0.164,-0 0.328,-0.082 0.451,-0.287l2.214,-3.697c0.082,-0.123 0.123,-0.246 0.123,-0.329c0,-0.205 -0.123,-0.369 -0.369,-0.451c-2.994,-1.356 -5.495,-3.204 -7.587,-5.586l6.644,0c0.369,0 0.574,-0.205 0.574,-0.574l0,-3.281c0,-0.369 -0.205,-0.574 -0.574,-0.574l-8.448,-0l-0,-2.338l7.505,0c0.369,0 0.574,-0.164 0.574,-0.574l-0,-16.404c-0,-0.369 -0.205,-0.574 -0.574,-0.574l-19.685,0c-0.369,0 -0.574,0.205 -0.574,0.574l-0,16.404c-0,0.41 0.205,0.574 0.574,0.574Zm-15.871,-11.113l0,3.116c0,0.37 0.205,0.575 0.574,0.575l13.082,-0c0.369,-0 0.574,-0.205 0.574,-0.575l0,-3.116c0,-0.369 -0.205,-0.574 -0.574,-0.574l-13.082,-0c-0.369,-0 -0.574,0.205 -0.574,0.574Zm1.066,17.839l0,10.786c0,0.369 0.205,0.574 0.574,0.574l11.196,-0c0.369,-0 0.574,-0.205 0.574,-0.574l0,-10.786c0,-0.369 -0.205,-0.574 -0.574,-0.574l-11.196,-0c-0.369,-0 -0.574,0.205 -0.574,0.574Zm0.41,-5.905l0,2.624c0,0.41 0.205,0.574 0.575,0.574l10.539,0c0.369,0 0.574,-0.164 0.574,-0.574l0,-2.624c0,-0.37 -0.205,-0.575 -0.574,-0.575l-10.539,0c-0.37,0 -0.575,0.205 -0.575,0.575Zm0,-5.66l0,2.666c0,0.369 0.205,0.574 0.575,0.574l10.539,-0c0.369,-0 0.574,-0.205 0.574,-0.574l0,-2.666c0,-0.369 -0.205,-0.574 -0.574,-0.574l-10.539,0c-0.37,0 -0.575,0.205 -0.575,0.574Zm0,-12.098l0,2.871c0,0.369 0.205,0.574 0.575,0.574l10.58,0c0.369,0 0.574,-0.205 0.574,-0.574l0,-2.871c0,-0.369 -0.205,-0.574 -0.574,-0.574l-10.58,0c-0.37,0 -0.575,0.205 -0.575,0.574Zm3.814,31.086l0,-4.265l3.978,-0l0,4.265l-3.978,-0Zm14.6,-18.209l-0,-2.87l3.568,-0l-0,2.87l-3.568,0Zm-0,-6.356l-0,-2.789l3.568,0l-0,2.789l-3.568,-0Zm7.997,6.356l-0,-2.87l3.691,-0l-0,2.87l-3.691,0Zm-0,-6.356l-0,-2.789l3.691,0l-0,2.789l-3.691,-0Z" style="fill:#152536;fill-rule:nonzero;"/><path d="M650.208,157.304l0,13.164c0,0.37 0.206,0.575 0.575,0.575l14.23,-0c0.369,-0 0.574,-0.205 0.574,-0.575l0,-13.164c0,-0.369 -0.205,-0.574 -0.574,-0.574l-14.23,0c-0.369,0 -0.575,0.205 -0.575,0.574Zm-0.574,19.767l7.013,0l0,8.161c-0.861,-0.656 -1.599,-1.435 -2.173,-2.297c0.164,-1.107 0.369,-2.46 0.451,-3.526c0.041,-0.369 -0.164,-0.575 -0.534,-0.616l-3.198,-0.328c-0.369,-0.041 -0.615,0.164 -0.615,0.534c-0.205,3.936 -1.067,8.243 -2.584,11.359c-0.164,0.328 -0.082,0.615 0.246,0.779l3.24,1.769c0.328,0.165 0.615,0.083 0.779,-0.248c0.738,-1.439 1.312,-3.079 1.763,-5.006c2.051,2.665 4.799,4.142 9.638,4.429c2.091,0.123 5.495,0.205 9.022,0.205c4.593,-0 9.391,-0.123 11.729,-0.369c0.246,-0.041 0.41,-0.164 0.492,-0.492l1.23,-3.814c0.123,-0.369 -0.041,-0.616 -0.451,-0.616l-0.082,0l-1.435,0.124l1.558,-2.912c0.082,-0.123 0.082,-0.246 0.082,-0.328c0,-0.205 -0.123,-0.369 -0.41,-0.41c-2.132,-0.534 -4.142,-1.477 -5.659,-2.625l3.65,-0c0.369,-0 0.574,-0.205 0.574,-0.574l-0,-16.814c-0,-0.369 -0.205,-0.574 -0.574,-0.574l-6.398,-0c0.369,-0.698 0.697,-1.436 1.025,-2.174l6.562,0c0.369,0 0.574,-0.205 0.574,-0.574l-0,-2.789c-0,-0.369 -0.205,-0.574 -0.574,-0.574l-17.101,0c-0.369,0 -0.574,0.205 -0.574,0.574l-0,2.789c-0,0.369 0.205,0.574 0.574,0.574l5.495,0c-0.328,0.738 -0.697,1.517 -1.025,2.174l-3.404,-0c-0.369,-0 -0.574,0.205 -0.574,0.574l-0,16.814c-0,0.369 0.205,0.574 0.574,0.574l3.568,-0c-1.559,1.148 -3.691,2.174 -6.193,2.748c-0.287,0.041 -0.41,0.205 -0.41,0.41c0,0.082 0,0.205 0.082,0.328l1.723,2.83c0.123,0.205 0.287,0.369 0.533,0.369c0.041,-0 0.123,-0 0.205,-0.041c2.501,-0.78 5.044,-2.215 6.725,-3.855c0.123,-0.123 0.206,-0.246 0.206,-0.369c-0,-0.123 -0.083,-0.288 -0.206,-0.411l-1.722,-2.009l5.577,-0l-1.681,1.968c-0.123,0.123 -0.164,0.288 -0.164,0.411c-0,0.123 0.041,0.246 0.164,0.369c1.517,1.517 3.691,2.747 5.782,3.65c-3.855,0.246 -8.776,0.369 -12.836,0.369c-2.46,-0 -4.634,-0.041 -6.11,-0.123c-0.943,-0.041 -1.846,-0.205 -2.666,-0.369l0,-3.527l4.142,-0c0.369,-0 0.574,-0.205 0.574,-0.574l0,-2.584c0,-0.369 -0.205,-0.574 -0.574,-0.574l-4.142,-0l0,-2.83l5.003,0c0.369,0 0.574,-0.205 0.574,-0.574l0,-2.912c0,-0.369 -0.205,-0.574 -0.574,-0.574l-16.486,0.041c-0.369,0 -0.574,0.205 -0.574,0.574l0,2.912c0,0.369 0.205,0.574 0.574,0.574Zm11.565,-14.641l-6.602,0l-0,-2.255l6.602,-0l0,2.255Zm0,5.496l-6.602,-0l-0,-2.297l6.602,0l0,2.297Zm18.086,-0.123l-6.726,-0l-0,-1.969l6.726,0l-0,1.969Zm-0,5.167l-6.726,0l-0,-2.009l6.726,-0l-0,2.009Zm-0,4.962l-6.726,0l-0,-2.091l6.726,-0l-0,2.091Z" style="fill:#152536;fill-rule:nonzero;"/><path d="M695.278,184.084l8.284,-0l0,2.624c0,1.436 -0.328,2.092 -4.06,2.01c-0.328,-0 -0.533,0.164 -0.533,0.41c0,0.082 0,0.164 0.041,0.246l1.067,3.035c0.123,0.328 0.369,0.492 0.697,0.492c5.618,0.083 7.054,-0.984 7.054,-5.413l-0,-21.859c-0,-0.369 -0.206,-0.574 -0.575,-0.574l-2.993,0c0.615,-0.861 1.271,-1.804 1.763,-2.748c0.123,-0.246 0.164,-0.451 0.164,-0.738l0,-2.87c0,-0.37 -0.205,-0.575 -0.574,-0.575l-6.931,0l0.492,-1.236c0.082,-0.164 0.082,-0.329 0.082,-0.453c0,-0.247 -0.123,-0.412 -0.41,-0.453l-3.609,-0.289c-0.328,-0.041 -0.533,0.083 -0.656,0.412c-1.066,2.799 -3.281,6.12 -5.659,8.253c-0.164,0.123 -0.246,0.287 -0.246,0.451c-0,0.082 -0,0.205 0.041,0.287l1.025,3.896c0.082,0.246 0.246,0.41 0.41,0.41c0.123,0 0.246,-0.041 0.369,-0.164l0.697,-0.615l0,7.3c0,6.397 -0.574,10.949 -2.214,14.312c-0.164,0.328 -0.082,0.615 0.246,0.779l3.527,1.764c0.123,0.041 0.246,0.082 0.328,0.082c0.205,-0 0.369,-0.082 0.451,-0.328c1.025,-2.543 1.476,-5.496 1.722,-8.448Zm14.067,-22.802l3.814,0c-0.492,2.789 -1.805,4.593 -4.265,5.988c-0.205,0.123 -0.328,0.246 -0.328,0.41c-0,0.123 0.082,0.246 0.205,0.369l2.583,2.584c0.164,0.164 0.287,0.206 0.451,0.206c0.124,-0 0.206,-0 0.329,-0.083c3.485,-2.174 4.962,-5.373 5.577,-9.474l3.486,0c-0,0.533 0.041,1.436 -0,1.969c-0.123,2.214 -0.287,3.034 -3.691,2.952c-0.369,0 -0.574,0.123 -0.574,0.411c-0,0.041 -0,0.123 0.041,0.205l0.861,2.788c0.123,0.328 0.328,0.451 0.656,0.451c5.783,0.124 7.054,-1.804 7.259,-6.479c0.123,-1.805 0.164,-4.757 0.164,-6.029c-0,-0.369 -0.205,-0.574 -0.574,-0.574l-15.994,0c-0.369,0 -0.574,0.205 -0.574,0.574l-0,3.158c-0,0.369 0.205,0.574 0.574,0.574Zm-9.966,3.773l-4.798,0c0.738,-0.902 1.395,-1.886 2.051,-2.953l4.716,0c-0.492,0.821 -1.23,1.969 -1.969,2.953Zm-1.558,7.751l-2.379,0l0,-3.691l2.379,0l0,3.691Zm5.782,0l-2.501,0l-0,-3.691l2.501,0l0,3.691Zm5.947,13.943l6.233,0l0,5.757c0,0.369 0.206,0.575 0.575,0.575l3.732,-0c0.369,-0 0.574,-0.206 0.574,-0.575l-0,-5.757l5.946,0c0.369,0 0.574,-0.205 0.574,-0.574l0,-3.322c0,-0.369 -0.205,-0.574 -0.574,-0.574l-5.946,0l-0,-3.691l4.839,0c0.369,0 0.574,-0.205 0.574,-0.574l-0,-3.363c-0,-0.369 -0.205,-0.574 -0.574,-0.574l-4.839,0l-0,-2.791c-0,-0.37 -0.205,-0.575 -0.574,-0.575l-3.732,0c-0.369,0 -0.575,0.205 -0.575,0.575l0,2.791l-1.681,0l0.287,-1.518c0.041,-0.37 -0.082,-0.575 -0.451,-0.657l-2.789,-0.657c-0.369,-0.082 -0.615,0.082 -0.656,0.452c-0.41,2.667 -1.066,5.497 -2.337,7.917c-0.164,0.328 -0.082,0.574 0.287,0.738l2.665,1.066c0.328,0.123 0.574,0.082 0.738,-0.246c0.411,-0.779 0.78,-1.64 1.108,-2.584l2.829,0l0,3.691l-6.233,0c-0.369,0 -0.574,0.205 -0.574,0.574l-0,3.322c-0,0.369 0.205,0.574 0.574,0.574Zm-11.729,-6.274l-2.379,-0l0,-4.06l2.379,-0l0,4.06Zm5.782,-0l-2.501,-0l-0,-4.06l2.501,-0l0,4.06Z" style="fill:#152536;fill-rule:nonzero;"/><path d="M741.538,178.383l7.094,0c-1.394,4.271 -4.47,7.844 -9.678,9.691c-0.287,0.082 -0.41,0.247 -0.41,0.452c-0,0.082 0.041,0.205 0.123,0.328l2.666,3.778c0.123,0.205 0.287,0.329 0.492,0.329c0.082,-0 0.205,-0.042 0.287,-0.083c5.618,-2.71 8.981,-6.775 10.827,-11.497c2.173,5.174 6.602,9.28 11.441,11.374c0.328,0.123 0.574,0.082 0.779,-0.205l2.625,-3.942c0.082,-0.123 0.123,-0.205 0.123,-0.328c0,-0.165 -0.123,-0.329 -0.41,-0.411c-4.757,-1.642 -8.571,-5.174 -10.457,-9.486l9.473,0c0.369,0 0.574,-0.205 0.574,-0.574l-0,-3.732c-0,-0.369 -0.205,-0.574 -0.574,-0.574l-2.051,0l0,-11.811c0,-0.369 -0.205,-0.574 -0.574,-0.574l-8.858,0l0,-4.893c0,-0.371 -0.205,-0.577 -0.574,-0.577l-4.347,0c-0.369,0 -0.574,0.206 -0.574,0.577l-0,4.893l-6.48,0c-0.369,0 -0.574,0.205 -0.574,0.574l-0,3.773c-0,0.369 0.205,0.574 0.574,0.574l6.48,0c-0,1.846 -0,3.732 -0.041,5.578c-0,0.656 -0.082,1.271 -0.123,1.886l-7.833,0c-0.369,0 -0.574,0.205 -0.574,0.574l-0,3.732c-0,0.369 0.205,0.574 0.574,0.574Zm-9.474,-18.046c1.969,1.027 4.594,2.545 6.357,4.226c0.123,0.123 0.246,0.205 0.369,0.205c0.164,0 0.287,-0.082 0.41,-0.246l2.666,-3.322c0.123,-0.123 0.164,-0.246 0.164,-0.37c-0,-0.164 -0.082,-0.287 -0.205,-0.411c-1.846,-1.686 -4.511,-3.331 -6.685,-4.235c-0.328,-0.124 -0.574,-0.041 -0.779,0.246l-2.461,3.084c-0.082,0.124 -0.164,0.248 -0.164,0.371c0,0.164 0.123,0.329 0.328,0.452Zm-0.82,9.639c2.297,1.067 4.675,2.543 6.562,4.142c0.123,0.123 0.246,0.164 0.41,0.164c0.123,0 0.246,-0.082 0.369,-0.246l2.338,-3.28c0.082,-0.124 0.164,-0.247 0.164,-0.411c-0,-0.123 -0.082,-0.287 -0.246,-0.41c-1.928,-1.599 -4.43,-3.034 -6.89,-4.101c-0.328,-0.123 -0.574,-0.041 -0.779,0.246l-2.174,3.117c-0.082,0.123 -0.123,0.246 -0.123,0.328c0,0.205 0.123,0.328 0.369,0.451Zm28.01,3.527l-4.552,0l0.123,-1.435c0.082,-1.969 0.082,-4.019 0.082,-6.029l4.347,0l0,7.464Zm-28.297,16.583l3.691,2.053c0.328,0.164 0.615,0.082 0.779,-0.246c2.338,-4.271 4.142,-9.568 5.25,-13.058c0.082,-0.246 -0,-0.452 -0.329,-0.616l-3.444,-1.845c-0.123,-0.082 -0.246,-0.082 -0.328,-0.082c-0.206,-0 -0.329,0.123 -0.411,0.369c-1.23,3.776 -3.157,8.785 -5.454,12.645c-0.205,0.328 -0.082,0.616 0.246,0.78Z" style="fill:#152536;fill-rule:nonzero;"/><path d="M774.059,168.008l11.441,-0c-0.82,8.448 -4.101,15.297 -13.451,19.603c-0.246,0.123 -0.369,0.246 -0.369,0.451c0,0.082 0.041,0.205 0.123,0.328l3.035,4.267c0.123,0.206 0.287,0.289 0.451,0.289c0.123,-0 0.205,-0.041 0.328,-0.083c10.171,-5.088 14.518,-14.07 15.502,-24.855l10.047,-0c0,2.46 0,7.956 -0.246,11.852c-0.369,5.659 -2.05,7.3 -7.874,7.3c-0.697,-0 -1.476,-0.041 -2.337,-0.083c-0.328,-0.041 -0.533,0.124 -0.533,0.411c-0,0.082 -0,0.164 0.041,0.246l1.517,4.265c0.123,0.328 0.328,0.492 0.656,0.492c9.843,0.207 13.533,-1.887 14.108,-12.18c0.246,-4.511 0.287,-9.966 0.287,-14.19l-0,-2.87c-0,-0.369 -0.205,-0.574 -0.575,-0.574l-14.845,-0l-0,-6.495c-0,-0.37 -0.205,-0.534 -0.574,-0.534l-4.593,-0c-0.369,-0 -0.575,0.206 -0.575,0.575c0.041,2.014 0.082,4.358 0.082,6.454l-11.646,-0c-0.369,-0 -0.574,0.205 -0.574,0.574l-0,4.183c-0,0.369 0.205,0.574 0.574,0.574Z" style="fill:#152536;fill-rule:nonzero;"/><path d="M590.047,621.096l0.369,-0.074l7.601,-1.93c0.517,-0.074 0.812,-0.443 0.812,-0.96c0,-0.074 0,-0.147 -0.074,-0.221c-1.771,-10.848 -5.239,-22.656 -9.814,-32.839c-0.148,-0.517 -0.443,-0.738 -0.886,-0.738l-0.369,0.073l-6.715,1.845c-0.517,0.074 -0.738,0.369 -0.738,0.812c-0,0.148 -0,0.295 0.073,0.443c2.288,5.461 4.281,11.291 5.83,17.268c-4.501,1.328 -9.446,2.509 -14.759,3.395c3.616,-14.243 7.306,-33.43 9.667,-50.799c0.074,-0.665 -0.221,-1.035 -0.885,-1.183l-7.601,-0.886c-0.664,-0.148 -1.107,0.221 -1.181,0.886c-2.14,17.149 -5.83,36.854 -9.889,53.31l-5.018,0.443c-0.59,-0 -0.885,0.295 -0.885,0.812l-0,0.369l1.771,7.453c0.147,0.517 0.443,0.812 0.959,0.812l0.222,-0c10.921,-1.181 20.958,-3.247 29.592,-5.756c0.443,2.214 0.812,4.427 1.033,6.573c0.074,0.594 0.369,0.892 0.885,0.892Zm-59.701,-17.206l3.69,6.789c0.222,0.369 0.517,0.516 0.738,0.516c0.295,0 0.517,-0.147 0.738,-0.442c3.542,-4.871 6.125,-10.848 8.118,-16.9l-0.296,26.945c0,0.669 0.369,1.04 1.034,1.04l6.789,0c0.664,0 1.033,-0.371 1.033,-1.04l-0.295,-28.494c1.771,3.616 4.059,7.305 6.273,9.741c0.221,0.295 0.442,0.369 0.664,0.369c0.295,-0 0.59,-0.222 0.738,-0.591l3.025,-6.568c0.295,-0.59 0.148,-1.033 -0.369,-1.402c-3.321,-2.509 -6.641,-6.272 -9.298,-11.291l8.708,0c0.738,0 1.033,-0.295 1.033,-1.033l0,-6.272c0,-0.665 -0.295,-1.034 -1.033,-1.034l-9.52,0l0.074,-9.15c3.395,-0.517 6.568,-1.255 9.372,-2.067c0.369,-0.073 0.591,-0.295 0.591,-0.664c-0,-0.147 -0.074,-0.369 -0.148,-0.59l-2.878,-6.138c-0.222,-0.445 -0.517,-0.667 -0.886,-0.667l-0.442,0.073c-5.978,1.929 -15.498,2.968 -24.648,3.042c-0.591,0 -0.96,0.295 -0.96,0.812c0,0.074 0,0.221 0.074,0.295l1.402,6.42c0.148,0.591 0.517,0.886 1.181,0.886c2.804,-0 5.608,-0.148 8.413,-0.369l-0,8.117l-10.11,0c-0.738,0 -1.034,0.369 -1.034,1.034l0,6.272c0,0.738 0.296,1.033 1.034,1.033l8.781,0c-2.804,7.454 -6.789,14.833 -11.438,19.925c-0.221,0.296 -0.369,0.517 -0.369,0.812c-0,0.222 0.074,0.369 0.221,0.591Z" style="fill:#fff;fill-rule:nonzero;"/><path d="M17.041,807.159l-0,2.06l-14.436,0c-0.369,0 -0.574,0.205 -0.574,0.574l0,3.117c0,0.369 0.205,0.574 0.574,0.574l34.818,0c0.369,0 0.574,-0.205 0.574,-0.574l-0,-3.117c-0,-0.369 -0.205,-0.574 -0.574,-0.574l-14.764,0l0,-2.06c0,-0.371 -0.205,-0.577 -0.574,-0.577l-4.47,0c-0.369,0 -0.574,0.206 -0.574,0.577Zm-10.622,8.581l0,8.243c0,0.369 0.205,0.574 0.574,0.574l26.001,-0c0.369,-0 0.574,-0.205 0.574,-0.574l-0,-8.243c-0,-0.369 -0.205,-0.574 -0.574,-0.574l-26.001,-0c-0.369,-0 -0.574,0.205 -0.574,0.574Zm5.086,5.454l-0,-2.624l16.978,-0l-0,2.624l-16.978,0Zm-3.773,22.402l-0,-13.38l24.442,0l-0,7.341c-0,1.107 0.041,2.051 -3.404,2.051l-0,-6.972c-0,-0.369 -0.205,-0.574 -0.574,-0.574l-16.691,-0c-0.37,-0 -0.575,0.205 -0.575,0.574l0,8.12c0,0.369 0.205,0.574 0.575,0.574l15.583,0l1.149,2.39c0.164,0.288 0.369,0.412 0.697,0.412c6.028,0.123 8.284,-1.442 8.284,-6.042l-0,-11.236c-0,-0.37 -0.205,-0.575 -0.574,-0.575l-33.3,0c-0.37,0 -0.575,0.205 -0.575,0.575l0,16.742c0,0.371 0.205,0.577 0.575,0.577l3.813,-0c0.37,-0 0.575,-0.206 0.575,-0.577Zm16.486,-5.629l-8.612,0l-0,-2.542l8.612,-0l-0,2.542Z" style="fill:#152536;fill-rule:nonzero;"/><path d="M47.47,837.106c1.682,2.748 4.06,4.224 6.562,4.224c3.035,0 6.192,-2.256 8.366,-7.3c0.082,-0.164 0.123,-0.328 0.123,-0.492c-0,-0.165 -0.082,-0.329 -0.205,-0.452l-3.076,-3.242c-0.123,-0.123 -0.246,-0.164 -0.369,-0.164c-0.164,0 -0.328,0.123 -0.41,0.41c-1.394,3.735 -3.076,5.294 -4.47,5.294c-0.615,-0 -1.148,-0.287 -1.6,-0.821c-1.886,-2.216 -2.624,-6.935 -2.624,-12.475c-0,-3.283 0.246,-6.813 0.656,-10.342c0.041,-0.369 -0.123,-0.615 -0.492,-0.656l-4.839,-0.492c-0.369,-0.041 -0.574,0.123 -0.615,0.533c-0.123,3.036 -0.205,6.032 -0.205,8.864c-0,7.14 0.656,13.296 3.198,17.111Zm17.307,-22.2c5.905,5.089 8.243,13.296 8.448,20.683c-0,0.369 0.164,0.533 0.451,0.533l0.164,-0l4.511,-0.984c0.328,-0.082 0.492,-0.288 0.492,-0.657c-0.041,-8.741 -3.568,-17.277 -9.596,-22.694c-0.123,-0.123 -0.246,-0.164 -0.411,-0.164c-0.123,0 -0.246,0.041 -0.369,0.123l-3.649,2.38c-0.206,0.123 -0.288,0.246 -0.288,0.411c0,0.123 0.082,0.246 0.247,0.369Z" style="fill:#152536;fill-rule:nonzero;"/><path d="M87.045,843.093l30.019,0c0.369,0 0.574,-0.205 0.574,-0.574l0,-30.511c0,-0.369 -0.205,-0.574 -0.574,-0.574l-14.681,-0c0.779,-1.07 1.558,-2.386 2.214,-3.703c0.164,-0.37 0,-0.658 -0.41,-0.699l-4.921,-0.411c-0.369,-0 -0.574,0.123 -0.697,0.411c-0.656,1.481 -1.518,3.004 -2.625,4.402l-8.899,-0c-0.369,-0 -0.574,0.205 -0.574,0.574l-0,30.511c-0,0.369 0.205,0.574 0.574,0.574Zm4.798,-4.921l0,-4.552l20.423,0l0,4.552l-20.423,0Zm0,-8.817l0,-4.347l20.423,0l0,4.347l-20.423,0Zm0,-8.612l0,-4.47l20.423,-0l0,4.47l-20.423,0Z" style="fill:#152536;fill-rule:nonzero;"/><path d="M125.676,824.27l14.6,-0l-0,12.508c-2.338,-0.902 -4.224,-2.502 -5.495,-5.003c0.41,-1.559 0.738,-3.035 0.943,-4.511c0.041,-0.369 -0.123,-0.616 -0.492,-0.657l-3.978,-0.533c-0.369,-0.041 -0.574,0.123 -0.615,0.492c-0.698,5.496 -2.584,10.048 -6.275,13.452c-0.123,0.123 -0.205,0.287 -0.205,0.41c-0,0.164 0.082,0.287 0.205,0.41l3.404,2.835c0.123,0.123 0.246,0.164 0.369,0.164c0.164,0 0.287,-0.082 0.41,-0.206c1.804,-1.768 3.281,-4.064 4.388,-6.525c2.502,3.117 6.07,4.962 10.376,5.495c2.378,0.328 5.29,0.41 8.407,0.41c2.665,0 5.454,-0.082 8.161,-0.205c0.41,-0.041 0.615,-0.164 0.738,-0.492l1.435,-4.265c0.123,-0.369 0,-0.615 -0.41,-0.615l-0.082,0c-3.445,0.246 -7.751,0.41 -11.483,0.41c-1.558,0 -3.034,-0.041 -4.265,-0.082l0,-4.798l11.606,0c0.369,0 0.574,-0.205 0.574,-0.574l0,-3.486c0,-0.369 -0.205,-0.574 -0.574,-0.574l-11.606,-0l0,-4.06l14.436,-0c0.369,-0 0.574,-0.205 0.574,-0.574l-0,-3.568c-0,-0.369 -0.205,-0.574 -0.574,-0.574l-14.395,-0l0,-4.306l11.77,-0c0.369,-0 0.574,-0.205 0.574,-0.574l0,-3.486c0,-0.369 -0.205,-0.574 -0.574,-0.574l-11.77,-0l0,-3.334c0,-0.37 -0.205,-0.576 -0.574,-0.576l-4.388,0c-0.369,0 -0.574,0.206 -0.574,0.576l-0,3.334l-11.934,-0c-0.369,-0 -0.574,0.205 -0.574,0.574l-0,3.486c-0,0.369 0.205,0.574 0.574,0.574l11.934,-0l-0,4.306l-14.641,-0c-0.369,-0 -0.574,0.205 -0.574,0.574l0,3.568c0,0.369 0.205,0.574 0.574,0.574Z" style="fill:#152536;fill-rule:nonzero;"/><path d="M167.999,819.062l11.441,-0c-0.82,8.448 -4.101,15.296 -13.451,19.602c-0.246,0.123 -0.369,0.246 -0.369,0.452c0,0.082 0.041,0.205 0.123,0.328l3.035,4.267c0.123,0.206 0.287,0.289 0.451,0.289c0.123,-0 0.205,-0.041 0.328,-0.083c10.171,-5.089 14.518,-14.07 15.502,-24.855l10.047,-0c0,2.46 0,7.956 -0.246,11.852c-0.369,5.659 -2.05,7.299 -7.874,7.299c-0.697,0 -1.476,-0.041 -2.337,-0.082c-0.328,-0.041 -0.533,0.123 -0.533,0.41c-0,0.082 -0,0.164 0.041,0.246l1.517,4.265c0.123,0.329 0.328,0.493 0.656,0.493c9.843,0.207 13.533,-1.887 14.108,-12.18c0.246,-4.511 0.287,-9.966 0.287,-14.19l-0,-2.871c-0,-0.369 -0.205,-0.574 -0.575,-0.574l-14.845,0l-0,-6.494c-0,-0.37 -0.205,-0.534 -0.574,-0.534l-4.593,-0c-0.369,-0 -0.575,0.205 -0.575,0.575c0.041,2.014 0.082,4.357 0.082,6.453l-11.646,0c-0.369,0 -0.574,0.205 -0.574,0.574l-0,4.183c-0,0.37 0.205,0.575 0.574,0.575Z" style="fill:#152536;fill-rule:nonzero;"/><path d="M239.274,841.33l0.123,-4.511c0,-0.37 -0.164,-0.575 -0.451,-0.575l-0.164,0.041c-3.527,0.616 -8.243,1.19 -12.385,1.19c-2.83,0 -5.331,-0.246 -7.013,-0.943c-1.558,-0.616 -2.583,-1.888 -2.583,-3.448c-0,-1.887 1.476,-4.144 5.249,-5.909c3.937,-1.969 10.047,-3.488 16.117,-4.39c0.287,-0.041 0.451,-0.205 0.451,-0.452l-0.041,-0.246l-1.518,-4.391c-0.082,-0.287 -0.246,-0.451 -0.492,-0.451l-0.041,0l-0.164,0.041c-3.978,0.697 -7.997,1.641 -11.441,2.791c-0.493,-2.34 -0.739,-5.171 -0.739,-8.905c0,-0.657 0,-1.396 0.041,-2.134c0,-0.37 -0.205,-0.616 -0.574,-0.616l-4.962,0c-0.369,0 -0.574,0.246 -0.574,0.616c0.123,5.17 0.287,9.643 1.394,13.254c-6.11,3.037 -8.694,7.264 -8.694,11.039c0,3.693 2.502,6.974 6.644,8.327c2.747,0.861 6.069,1.23 9.719,1.23c3.65,0 7.587,-0.369 11.565,-0.943c0.369,-0.082 0.533,-0.287 0.533,-0.615Z" style="fill:#152536;fill-rule:nonzero;"/><path d="M249.075,822.753l4.06,-0c0.369,-0 0.575,-0.206 0.575,-0.575l-0,-4.716l24.77,0l-0,4.675c-0,0.41 0.205,0.575 0.574,0.575l4.019,-0c0.369,-0 0.574,-0.165 0.574,-0.575l-0,-8.53c-0,-0.369 -0.205,-0.574 -0.574,-0.574l-4.511,0c1.066,-1.315 2.132,-2.837 2.993,-4.358c0.041,-0.082 0.082,-0.205 0.082,-0.288c0,-0.205 -0.123,-0.369 -0.41,-0.452l-4.306,-1.069c-0.328,-0.082 -0.574,0.041 -0.697,0.371c-0.779,1.809 -1.968,3.905 -3.363,5.796l-3.363,0c-0.697,-2.014 -1.886,-4.275 -3.157,-6.002c-0.123,-0.206 -0.328,-0.288 -0.534,-0.288c-0.041,0 -0.123,0 -0.205,0.041l-3.937,1.069c-0.246,0.082 -0.41,0.206 -0.41,0.411c0,0.123 0.082,0.247 0.164,0.37c1.067,1.357 2.01,2.961 2.625,4.399l-5.044,0c-0.861,-2.014 -2.256,-4.193 -3.568,-5.755c-0.123,-0.206 -0.287,-0.288 -0.492,-0.288l-0.246,0.041l-3.937,1.274c-0.246,0.082 -0.369,0.206 -0.369,0.37c-0,0.124 0.082,0.247 0.164,0.371c1.107,1.315 2.05,2.713 2.706,3.987l-4.183,0c-0.369,0 -0.574,0.205 -0.574,0.574l0,8.571c0,0.369 0.205,0.575 0.574,0.575Zm-1.517,7.914l0,3.568c0,0.369 0.205,0.574 0.574,0.574l16.281,0l0,2.01c0,1.681 -0.738,2.502 -5.044,2.502c-0.656,-0 -1.435,-0.041 -2.338,-0.082c-0.369,-0 -0.574,0.123 -0.574,0.41c0,0.082 0,0.164 0.041,0.246l1.477,3.732c0.123,0.287 0.328,0.451 0.656,0.451c0.779,0.041 1.476,0.041 2.173,0.041c7.341,-0 8.981,-1.928 8.981,-6.767l0,-2.543l14.19,0c0.369,0 0.574,-0.205 0.574,-0.574l0,-3.568c0,-0.369 -0.205,-0.574 -0.574,-0.574l-14.19,0l0,-0.287c2.83,-1.353 5.783,-3.24 7.587,-4.88c0.246,-0.205 0.328,-0.41 0.328,-0.697l0,-3.158c0,-0.369 -0.205,-0.574 -0.574,-0.574l-22.063,-0c-0.369,-0 -0.574,0.205 -0.574,0.574l-0,3.199c-0,0.369 0.205,0.574 0.574,0.574l15.174,0c-1.149,0.861 -3.363,1.804 -5.332,2.379c-0.328,0.082 -0.492,0.287 -0.492,0.656l0,2.214l-16.281,0c-0.369,0 -0.574,0.205 -0.574,0.574Z" style="fill:#152536;fill-rule:nonzero;"/><path d="M308.909,824.639l-4.265,-0.369c0.984,-0.943 1.312,-2.379 1.312,-4.306l0,-11.729c0,-0.369 -0.205,-0.574 -0.574,-0.574l-15.666,-0c-0.369,-0 -0.574,0.205 -0.574,0.574l0,3.445c0,0.369 0.205,0.574 0.574,0.574l11.237,-0l0,7.379c0,1.807 -0.492,2.258 -3.404,2.217c-0.328,0 -0.533,0.164 -0.533,0.41c0,0.082 0,0.164 0.041,0.246l1.025,2.748c0.123,0.328 0.369,0.492 0.698,0.492c1.968,0.042 3.444,-0.164 4.511,-0.615c-0.246,0.615 -0.575,1.23 -0.944,1.846l-9.596,-0c-0.369,-0 -0.574,0.205 -0.574,0.574l-0,15.296c-0,0.37 0.205,0.575 0.574,0.575l28.83,-0c0.369,-0 0.574,-0.205 0.574,-0.575l0,-15.296c0,-0.369 -0.205,-0.574 -0.574,-0.574l-13.164,-0c0.328,-0.493 0.656,-1.108 0.902,-1.642c0.164,-0.368 0,-0.655 -0.41,-0.696Zm-0.779,-12.385l11.36,-0l-0,7.505c-0,1.763 -0.534,2.337 -3.855,2.214c-0.369,0 -0.575,0.164 -0.575,0.41c0,0.082 0,0.164 0.041,0.246l1.067,2.871c0.123,0.328 0.369,0.451 0.697,0.451c6.069,0.124 7.669,-1.476 7.669,-5.741l-0,-11.975c-0,-0.369 -0.205,-0.574 -0.574,-0.574l-15.83,-0c-0.369,-0 -0.574,0.205 -0.574,0.574l-0,3.445c-0,0.369 0.205,0.574 0.574,0.574Zm0.615,3.445c1.517,0.615 3.158,1.394 4.265,2.173c0.123,0.082 0.246,0.164 0.41,0.164c0.123,0 0.287,-0.082 0.41,-0.246l1.846,-2.214c0.123,-0.123 0.164,-0.287 0.164,-0.41c-0,-0.164 -0.041,-0.287 -0.205,-0.41c-1.272,-0.944 -3.199,-1.887 -4.758,-2.338c-0.328,-0.082 -0.533,0 -0.738,0.287l-1.599,2.215c-0.082,0.123 -0.123,0.246 -0.123,0.369c-0,0.164 0.082,0.328 0.328,0.41Zm-18.578,-0c1.518,0.574 3.117,1.394 4.265,2.378c0.123,0.123 0.247,0.164 0.411,0.164c0.123,0 0.246,-0.041 0.369,-0.205l1.927,-2.378c0.123,-0.123 0.164,-0.246 0.164,-0.369c0,-0.123 -0.082,-0.287 -0.246,-0.41c-1.312,-0.985 -3.117,-1.969 -4.675,-2.42c-0.328,-0.082 -0.574,0.041 -0.779,0.287l-1.682,2.174c-0.082,0.123 -0.123,0.246 -0.123,0.328c0,0.205 0.123,0.328 0.369,0.451Zm17.102,4.921l1.025,2.912c0.082,0.246 0.287,0.41 0.533,0.41c0.082,-0 0.123,-0.041 0.205,-0.041c3.117,-0.943 7.095,-2.625 9.473,-4.101c0.164,-0.082 0.246,-0.246 0.246,-0.492l0,-0.164l-0.328,-2.625c-0.041,-0.328 -0.164,-0.492 -0.369,-0.492c-0.123,-0 -0.205,0.041 -0.328,0.123c-2.871,1.722 -6.767,3.199 -10.047,3.773c-0.287,0.082 -0.451,0.246 -0.451,0.451c-0,0.082 -0,0.164 0.041,0.246Zm-18.66,0.574l1.025,3.117c0.082,0.287 0.246,0.41 0.492,0.41c0.082,-0 0.164,-0 0.246,-0.041c3.281,-1.066 7.177,-2.953 9.474,-4.593c0.164,-0.123 0.205,-0.287 0.205,-0.492l-0,-0.205l-0.287,-2.748c-0.041,-0.287 -0.164,-0.451 -0.369,-0.451c-0.123,-0 -0.246,0.041 -0.369,0.123c-2.83,1.845 -6.603,3.445 -10.007,4.183c-0.287,0.082 -0.451,0.246 -0.451,0.451c0,0.082 0,0.164 0.041,0.246Zm28.256,12.057l-19.398,0l0,-2.543l19.398,0l-0,2.543Zm-0,6.193l-19.398,-0l0,-2.748l19.398,-0l-0,2.748Z" style="fill:#152536;fill-rule:nonzero;"/><path d="M333.925,832.841l12.467,-0l-1.189,1.968c-0.082,0.123 -0.123,0.247 -0.123,0.329c-0,0.205 0.123,0.328 0.41,0.41c1.599,0.533 3.568,1.394 4.839,2.337c0.123,0.123 0.246,0.164 0.369,0.164c0.164,0 0.287,-0.082 0.41,-0.287l1.477,-2.378c0.082,-0.123 0.123,-0.246 0.123,-0.369c-0,-0.165 -0.082,-0.288 -0.287,-0.411c-1.067,-0.738 -2.502,-1.353 -3.937,-1.763l13.82,-0c0.369,-0 0.574,-0.205 0.574,-0.574l0,-11.196c0,-0.369 -0.205,-0.574 -0.574,-0.574l-28.379,-0c-0.369,-0 -0.574,0.205 -0.574,0.574l-0,11.196c-0,0.369 0.205,0.574 0.574,0.574Zm-4.429,8.038c-0.082,0.123 -0.123,0.246 -0.123,0.369c-0,0.164 0.123,0.328 0.328,0.41l4.019,1.394c0.287,0.123 0.574,0.041 0.738,-0.246c1.313,-1.927 2.502,-5.413 2.953,-7.586c0.041,-0.329 -0.082,-0.534 -0.451,-0.616l-3.691,-0.861c-0.369,-0.082 -0.574,0.041 -0.656,0.41c-0.533,2.174 -1.6,4.798 -3.117,6.726Zm0.287,-25.18l0,2.829c0,0.37 0.205,0.575 0.574,0.575l35.392,-0c0.369,-0 0.574,-0.205 0.574,-0.575l-0,-2.829c-0,-0.369 -0.205,-0.574 -0.574,-0.574l-7.382,-0c0.246,-0.78 0.492,-1.559 0.738,-2.379l4.798,0c0.369,0 0.575,-0.205 0.575,-0.574l-0,-2.666c-0,-0.369 -0.206,-0.574 -0.575,-0.574l-13.041,0l0,-1.731c0,-0.371 -0.205,-0.577 -0.574,-0.577l-4.511,0c-0.369,0 -0.574,0.206 -0.574,0.577l-0,1.731l-13,0c-0.369,0 -0.574,0.205 -0.574,0.574l-0,2.666c-0,0.369 0.205,0.574 0.574,0.574l4.839,0c0.287,0.82 0.533,1.599 0.738,2.379l-7.423,-0c-0.369,-0 -0.574,0.205 -0.574,0.574Zm8.653,18.944l0,3.406c0,3.322 1.436,5.044 5.003,5.168c1.354,0.082 2.83,0.082 4.265,0.082c1.518,-0 3.035,-0.041 4.388,-0.082c4.717,-0.165 6.48,-1.354 7.177,-5.784c0.041,-0.328 -0.082,-0.574 -0.41,-0.738l-3.24,-1.436c-0.41,-0.164 -0.656,-0 -0.697,0.451c-0.287,2.257 -0.82,3.036 -2.83,3.118c-1.148,0.082 -2.419,0.123 -3.608,0.123c-1.149,0 -2.256,-0.041 -3.199,-0.123c-1.682,-0.082 -1.887,-0.697 -1.887,-2.01l0,-2.175c0,-0.369 -0.164,-0.574 -0.574,-0.574l-3.814,-0c-0.369,-0 -0.574,0.205 -0.574,0.574Zm0,-5.042l0,-1.558l19.357,-0l-0,1.558l-19.357,0Zm0,-4.347l0,-1.517l19.357,-0l-0,1.517l-19.357,0Zm4.019,-12.508l11.278,0c-0.205,0.779 -0.492,1.599 -0.738,2.379l-9.761,-0c-0.246,-0.78 -0.492,-1.559 -0.779,-2.379Zm15.871,22.724c1.804,1.766 2.912,4.19 3.814,6.49c0.082,0.246 0.246,0.37 0.451,0.37c0.082,-0 0.205,-0.041 0.287,-0.083l3.486,-1.519c0.246,-0.082 0.369,-0.247 0.369,-0.452c0,-0.083 0,-0.206 -0.041,-0.288c-1.066,-2.382 -2.584,-4.682 -4.183,-6.449c-0.164,-0.164 -0.287,-0.246 -0.492,-0.246c-0.082,0 -0.164,0.041 -0.287,0.082l-3.24,1.315c-0.246,0.082 -0.369,0.246 -0.369,0.369c-0,0.123 0.082,0.288 0.205,0.411Z" style="fill:#152536;fill-rule:nonzero;"/><path d="M405.775,826.115c1.353,-4.347 1.64,-9.76 1.722,-14.435c-0,-0.369 -0.205,-0.574 -0.574,-0.574l-9.473,-0c0.205,-1.07 0.41,-2.14 0.574,-3.209c0.041,-0.453 -0.123,-0.7 -0.492,-0.741l-3.732,-0.329c-0.369,-0.041 -0.615,0.123 -0.657,0.494c-0.492,5.015 -2.091,10.059 -4.511,13.381c-0.082,0.164 -0.164,0.287 -0.164,0.41c0,0.123 0.082,0.287 0.246,0.41l3.117,2.83c0.123,0.123 0.246,0.164 0.369,0.164c0.164,-0 0.328,-0.082 0.41,-0.287c1.395,-2.297 2.625,-5.29 3.609,-8.448l6.398,-0c-0.082,2.337 -0.492,6.069 -1.477,8.612c-0.123,0.328 0,0.615 0.329,0.738l3.567,1.353c0.369,0.123 0.616,0 0.739,-0.369Zm-35.843,-0.574l1.681,3.937c0.082,0.205 0.246,0.328 0.41,0.328c0.123,0 0.246,-0.041 0.328,-0.123c0.37,-0.205 0.698,-0.451 1.026,-0.738l-0,13.287c-0,0.369 0.205,0.574 0.574,0.574l13.697,0c0.369,0 0.574,-0.205 0.574,-0.574l0,-1.476l2.625,2.959c0.123,0.124 0.246,0.206 0.41,0.206c0.123,0 0.246,-0.041 0.369,-0.165c3.117,-2.754 5.372,-6.814 6.562,-11.612c1.189,4.265 3.814,8.653 6.766,11.447c0.123,0.124 0.246,0.206 0.369,0.206c0.165,0 0.288,-0.124 0.411,-0.288l2.378,-3.819c0.082,-0.123 0.123,-0.246 0.123,-0.328c0,-0.164 -0.082,-0.329 -0.246,-0.452c-4.347,-3.649 -7.382,-9.555 -7.751,-16.855l0,-3.444c0,-0.37 -0.205,-0.575 -0.574,-0.575l-3.527,0c-0.41,0 -0.574,0.246 -0.574,0.698l0,1.927c-0.041,7.423 -1.845,14.764 -7.341,18.947l0,-11.237l0.287,0.206c0.123,0.082 0.246,0.123 0.328,0.123c0.206,-0 0.329,-0.123 0.452,-0.329l1.927,-3.528c0.082,-0.123 0.082,-0.206 0.082,-0.329c0,-0.164 -0.082,-0.328 -0.287,-0.451c-3.199,-1.97 -6.028,-4.885 -7.874,-8.169c-0.164,-0.287 -0.369,-0.411 -0.697,-0.411l-3.568,0c-0.328,0 -0.533,0.165 -0.656,0.452c-1.476,3.284 -4.675,6.814 -8.038,8.826c-0.205,0.164 -0.328,0.328 -0.328,0.492c-0,0.083 0.041,0.206 0.082,0.288Zm0.533,-10.703l2.338,2.747c0.123,0.164 0.287,0.246 0.41,0.246c0.123,0 0.246,-0.041 0.369,-0.123c2.665,-1.927 5.167,-5.29 6.274,-8.166c0.123,-0.329 0,-0.576 -0.328,-0.699l-2.871,-1.481c-0.328,-0.165 -0.615,-0.082 -0.738,0.288c-1.025,2.51 -2.993,4.809 -5.331,6.408c-0.164,0.123 -0.287,0.246 -0.287,0.411c-0,0.123 0.082,0.246 0.164,0.369Zm15.748,11.892l-10.335,0c2.092,-2.091 3.896,-4.552 4.88,-6.602c1.354,2.255 3.281,4.634 5.455,6.602Zm-8.161,11.606l-0,-7.258l5.495,-0l0,7.258l-5.495,0Zm3.65,-28.711c1.435,2.752 3.486,5.664 5.495,7.509c0.123,0.123 0.246,0.164 0.369,0.164c0.164,0 0.287,-0.082 0.41,-0.205l2.461,-2.748c0.123,-0.123 0.164,-0.246 0.164,-0.369c-0,-0.164 -0.082,-0.328 -0.246,-0.451c-2.051,-1.517 -3.732,-3.818 -5.003,-5.958c-0.123,-0.205 -0.287,-0.287 -0.452,-0.287c-0.123,-0 -0.205,0.041 -0.328,0.082l-2.624,1.481c-0.205,0.123 -0.328,0.288 -0.328,0.452c-0,0.124 0.041,0.206 0.082,0.33Z" style="fill:#152536;fill-rule:nonzero;"/><g transform="matrix(0.8202,0,0,0.8202,631.179,668.342)"><g transform="matrix(50,0,0,50,180.503,181.318)"><path d="M0.216,0.046l0.005,0c0.217,-0.047 0.351,-0.198 0.372,-0.388l0.313,0c0.009,0 0.014,-0.005 0.014,-0.014l0,-0.099c0,-0.009 -0.005,-0.014 -0.014,-0.014l-0.31,0c0,-0.05 0,-0.107 -0.001,-0.155c0.088,-0.017 0.167,-0.038 0.233,-0.064c0.003,-0.001 0.005,-0.003 0.005,-0.007c0,-0.002 -0.001,-0.006 -0.004,-0.01l-0.06,-0.088c-0.003,-0.004 -0.007,-0.007 -0.011,-0.007c-0.002,-0 -0.005,0.001 -0.007,0.002c-0.144,0.059 -0.339,0.089 -0.603,0.094c-0.008,-0 -0.013,0.003 -0.013,0.009c0,0.002 0.001,0.005 0.002,0.007l0.039,0.096c0.003,0.007 0.009,0.01 0.017,0.01c0.094,-0.003 0.184,-0.01 0.268,-0.021c0.001,0.044 0.001,0.091 0.001,0.134l-0.355,0c-0.009,0 -0.014,0.005 -0.014,0.014l0,0.099c0,0.009 0.005,0.014 0.014,0.014l0.35,0c-0.024,0.138 -0.131,0.235 -0.313,0.264c-0.007,0.001 -0.011,0.005 -0.011,0.01c0,0.002 0.001,0.005 0.003,0.008l0.067,0.098c0.003,0.006 0.008,0.008 0.013,0.008Z" style="fill:#152536;fill-rule:nonzero;"/></g><g transform="matrix(50,0,0,50,230.503,181.318)"><path d="M0.119,-0.311l0.762,0.001c0.008,0 0.012,-0.004 0.012,-0.012l0,-0.115c0,-0.008 -0.004,-0.012 -0.012,-0.012l-0.762,0c-0.008,0 -0.012,0.004 -0.012,0.012l0,0.114c0,0.008 0.004,0.012 0.012,0.012Z" style="fill:#152536;fill-rule:nonzero;"/></g><g transform="matrix(50,0,0,50,276.503,181.318)"><path d="M0.107,0.019l0.003,0c0.192,-0.024 0.424,-0.058 0.647,-0.1c0.015,0.037 0.027,0.076 0.038,0.116c0.002,0.006 0.006,0.01 0.011,0.01c0.002,-0 0.005,-0.001 0.007,-0.002l0.115,-0.051c0.006,-0.003 0.009,-0.007 0.009,-0.013c0,-0.001 0,-0.003 -0.001,-0.005c-0.047,-0.156 -0.144,-0.321 -0.253,-0.454c-0.003,-0.004 -0.007,-0.006 -0.011,-0.006c-0.003,0 -0.005,0 -0.008,0.002l-0.105,0.046c-0.005,0.003 -0.008,0.006 -0.008,0.01c0,0.003 0.001,0.006 0.004,0.01c0.056,0.067 0.105,0.139 0.147,0.217c-0.103,0.017 -0.237,0.035 -0.376,0.051c0.081,-0.187 0.161,-0.43 0.206,-0.599c0.002,-0.008 -0.002,-0.014 -0.012,-0.015l-0.132,-0.019c-0.009,-0.001 -0.015,0.003 -0.016,0.011c-0.035,0.17 -0.106,0.403 -0.205,0.639l-0.089,0.008c-0.008,0.001 -0.012,0.005 -0.012,0.011c0,0.002 0,0.003 0.001,0.005l0.026,0.116c0.002,0.008 0.007,0.012 0.014,0.012Z" style="fill:#152536;fill-rule:nonzero;"/></g><g transform="matrix(50,0,0,50,326.503,181.318)"><path d="M0.139,-0.722l0.291,0l0,0.066l-0.356,-0c-0.009,-0 -0.014,0.005 -0.014,0.014l-0,0.065c-0,0.009 0.005,0.014 0.014,0.014l0.852,-0c0.009,-0 0.014,-0.005 0.014,-0.014l0,-0.065c0,-0.009 -0.005,-0.014 -0.014,-0.014l-0.362,-0l0,-0.066l0.296,0c0.009,0 0.014,-0.005 0.014,-0.014l0,-0.064c0,-0.009 -0.005,-0.014 -0.014,-0.014l-0.721,0c-0.009,0 -0.014,0.005 -0.014,0.014l0,0.064c0,0.009 0.005,0.014 0.014,0.014Zm0.012,0.643l0.188,-0c-0.065,0.029 -0.161,0.045 -0.272,0.051c-0.008,0.001 -0.012,0.003 -0.012,0.009c0,0.002 0.001,0.004 0.002,0.007l0.041,0.081c0.004,0.006 0.008,0.009 0.014,0.009l0.003,0c0.106,-0.012 0.21,-0.036 0.303,-0.072c0.005,-0.002 0.008,-0.005 0.008,-0.01c0,-0.002 -0.001,-0.006 -0.004,-0.009l-0.055,-0.066l0.267,-0l-0.001,0.001l-0.053,0.064c-0.003,0.003 -0.004,0.006 -0.004,0.009c0,0.004 0.003,0.008 0.009,0.01c0.093,0.034 0.192,0.059 0.298,0.072c0.008,0.001 0.014,-0.002 0.018,-0.009l0.042,-0.079c0.002,-0.003 0.002,-0.005 0.002,-0.008c0,-0.005 -0.003,-0.008 -0.011,-0.009c-0.1,-0.007 -0.201,-0.024 -0.273,-0.051l0.187,-0c0.009,-0 0.014,-0.005 0.014,-0.014l0,-0.414c0,-0.009 -0.005,-0.014 -0.014,-0.014l-0.697,0c-0.009,0 -0.014,0.005 -0.014,0.014l0,0.414c0,0.009 0.005,0.014 0.014,0.014Zm0.584,-0.318l-0.471,-0l0,-0.044l0.471,-0l0,0.044Zm0,0.119l-0.471,-0l0,-0.044l0.471,-0l0,0.044Zm0,0.119l-0.471,-0l0,-0.044l0.471,-0l0,0.044Z" style="fill:#152536;fill-rule:nonzero;"/></g><g transform="matrix(50,0,0,50,376.503,181.318)"><path d="M0.377,-0.655l0.198,0c0.009,0 0.014,-0.005 0.014,-0.014l0,-0.085c0,-0.009 -0.005,-0.014 -0.014,-0.014l-0.198,0l0,-0.056c0,-0.009 -0.005,-0.014 -0.014,-0.014l-0.092,-0c-0.009,-0 -0.014,0.005 -0.014,0.014l0,0.056l-0.197,0c-0.009,0 -0.014,0.005 -0.014,0.014l0,0.085c0,0.009 0.005,0.014 0.014,0.014l0.197,0l0,0.068l-0.176,0c-0.009,0 -0.014,0.005 -0.014,0.014l0,0.634c0,0.009 0.005,0.014 0.014,0.014l0.077,0c0.009,0 0.014,-0.005 0.014,-0.014l0,-0.548l0.296,0l0,0.398c0,0.033 -0.011,0.048 -0.066,0.047c-0.009,-0 -0.013,0.004 -0.013,0.011l0,0.005l0.021,0.083c0.002,0.008 0.007,0.012 0.016,0.012c0.069,-0.001 0.11,-0.014 0.13,-0.059l0.051,0.054c0.004,0.004 0.007,0.005 0.01,0.005c0.004,-0 0.007,-0.001 0.01,-0.005c0.06,-0.074 0.109,-0.187 0.129,-0.341c0.02,0.132 0.06,0.245 0.121,0.337c0.003,0.005 0.007,0.007 0.01,0.007c0.004,0 0.007,-0.002 0.01,-0.006l0.065,-0.085c0.003,-0.004 0.004,-0.007 0.004,-0.01c0,-0.003 -0.001,-0.006 -0.004,-0.009c-0.081,-0.105 -0.135,-0.26 -0.149,-0.405l0.121,0c0.009,0 0.014,-0.005 0.014,-0.014l0,-0.094c0,-0.009 -0.005,-0.014 -0.014,-0.014l-0.124,0l0,-0.253c0,-0.009 -0.005,-0.014 -0.014,-0.014l-0.095,-0c-0.009,-0 -0.014,0.005 -0.014,0.014l0,0.253l-0.08,0c-0.009,0 -0.014,0.005 -0.014,0.014l0,0.094c0,0.009 0.005,0.014 0.014,0.014l0.076,0c-0.011,0.144 -0.047,0.278 -0.113,0.376l0,-0.501c0,-0.009 -0.005,-0.014 -0.014,-0.014l-0.179,0l0,-0.068Zm0.484,0.045c0.002,0.008 0.006,0.011 0.012,0.011c0.002,0 0.004,0 0.006,-0.001l0.064,-0.025c0.007,-0.002 0.011,-0.007 0.011,-0.013l-0.001,-0.004c-0.012,-0.051 -0.031,-0.107 -0.052,-0.155c-0.003,-0.006 -0.007,-0.009 -0.012,-0.009c-0.002,-0 -0.004,-0 -0.006,0.001l-0.057,0.019c-0.006,0.002 -0.009,0.006 -0.009,0.011c0,0.002 0,0.004 0.001,0.007c0.017,0.048 0.033,0.103 0.043,0.158Zm-0.653,0.491l0.063,-0l0,0.156c0,0.009 0.005,0.014 0.014,0.014l0.065,0c0.009,0 0.014,-0.005 0.014,-0.014l0,-0.156l0.068,-0c0.009,-0 0.014,-0.005 0.014,-0.014l0,-0.06c0,-0.009 -0.005,-0.014 -0.014,-0.014l-0.068,0l0,-0.065l0.062,0c0.009,0 0.014,-0.005 0.014,-0.014l0,-0.058c0,-0.009 -0.005,-0.014 -0.014,-0.014l-0.02,0c0.011,-0.024 0.021,-0.055 0.027,-0.083c0.002,-0.009 -0.002,-0.015 -0.011,-0.017l-0.051,-0.013c-0.009,-0.002 -0.014,0.002 -0.016,0.011c-0.006,0.034 -0.016,0.071 -0.029,0.102l-0.013,0c-0.006,-0.032 -0.016,-0.068 -0.032,-0.103c-0.002,-0.006 -0.007,-0.01 -0.013,-0.01c-0.002,0 -0.003,0.001 -0.005,0.001l-0.048,0.013c-0.006,0.002 -0.01,0.006 -0.01,0.011c0,0.002 0.001,0.004 0.002,0.007c0.012,0.026 0.022,0.057 0.027,0.081l-0.022,0c-0.009,0 -0.014,0.005 -0.014,0.014l0,0.058c0,0.009 0.005,0.014 0.014,0.014l0.059,0l0,0.065l-0.063,0c-0.009,0 -0.014,0.005 -0.014,0.014l0,0.06c0,0.009 0.005,0.014 0.014,0.014Z" style="fill:#152536;fill-rule:nonzero;"/></g><g transform="matrix(50,0,0,50,426.503,181.318)"><path d="M0.109,-0.536l0.279,0c-0.02,0.206 -0.1,0.373 -0.328,0.478c-0.006,0.003 -0.009,0.006 -0.009,0.011c0,0.002 0.001,0.005 0.003,0.008l0.074,0.104c0.003,0.005 0.007,0.007 0.011,0.007c0.003,0 0.005,-0.001 0.008,-0.002c0.248,-0.124 0.354,-0.343 0.378,-0.606l0.245,0c0,0.06 0,0.194 -0.006,0.289c-0.009,0.138 -0.05,0.178 -0.192,0.178c-0.017,0 -0.036,-0.001 -0.057,-0.002c-0.008,-0.001 -0.013,0.003 -0.013,0.01c0,0.002 0,0.004 0.001,0.006l0.037,0.104c0.003,0.008 0.008,0.012 0.016,0.012c0.24,0.005 0.33,-0.046 0.344,-0.297c0.006,-0.11 0.007,-0.243 0.007,-0.346l-0,-0.07c-0,-0.009 -0.005,-0.014 -0.014,-0.014l-0.362,0l-0,-0.158c-0,-0.009 -0.005,-0.013 -0.014,-0.013l-0.112,-0c-0.009,-0 -0.014,0.005 -0.014,0.014c0.001,0.049 0.002,0.106 0.002,0.157l-0.284,0c-0.009,0 -0.014,0.005 -0.014,0.014l-0,0.102c-0,0.009 0.005,0.014 0.014,0.014Z" style="fill:#152536;fill-rule:nonzero;"/></g><g transform="matrix(50,0,0,50,476.503,181.318)"><path d="M0.847,0.007l0.003,-0.11c0,-0.009 -0.004,-0.014 -0.011,-0.014l-0.004,0.001c-0.086,0.015 -0.201,0.029 -0.302,0.029c-0.069,-0 -0.13,-0.006 -0.171,-0.023c-0.038,-0.015 -0.063,-0.046 -0.063,-0.084c0,-0.046 0.036,-0.101 0.128,-0.144c0.096,-0.048 0.245,-0.085 0.393,-0.107c0.007,-0.001 0.011,-0.005 0.011,-0.011l-0.001,-0.006l-0.037,-0.107c-0.002,-0.007 -0.006,-0.011 -0.012,-0.011l-0.001,-0l-0.004,0.001c-0.097,0.017 -0.195,0.04 -0.279,0.068c-0.012,-0.057 -0.018,-0.126 -0.018,-0.217c0,-0.016 0,-0.034 0.001,-0.052c0,-0.009 -0.005,-0.015 -0.014,-0.015l-0.121,-0c-0.009,-0 -0.014,0.006 -0.014,0.015c0.003,0.126 0.007,0.235 0.034,0.323c-0.149,0.074 -0.212,0.177 -0.212,0.269c0,0.09 0.061,0.17 0.162,0.203c0.067,0.021 0.148,0.03 0.237,0.03c0.089,0 0.185,-0.009 0.282,-0.023c0.009,-0.002 0.013,-0.007 0.013,-0.015Z" style="fill:#152536;fill-rule:nonzero;"/></g><g transform="matrix(50,0,0,50,104.253,239.651)"><path d="M0.077,-0.604l0.354,0l0,0.104l-0.301,0c-0.009,0 -0.014,0.005 -0.014,0.014l0,0.097c0,0.009 0.005,0.014 0.014,0.014l0.56,0c-0.033,0.057 -0.095,0.124 -0.182,0.177c-0.065,-0.042 -0.123,-0.094 -0.171,-0.159c-0.003,-0.005 -0.007,-0.007 -0.011,-0.007c-0.003,0 -0.005,0.001 -0.008,0.002l-0.094,0.043c-0.006,0.002 -0.008,0.006 -0.008,0.01c0,0.003 0.001,0.006 0.003,0.009c0.044,0.063 0.102,0.124 0.161,0.169c-0.093,0.038 -0.211,0.065 -0.327,0.075c-0.007,0.001 -0.012,0.005 -0.012,0.01c0,0.002 0.001,0.005 0.002,0.007l0.046,0.101c0.003,0.006 0.008,0.01 0.015,0.01l0.002,0c0.146,-0.016 0.286,-0.059 0.404,-0.119c0.103,0.055 0.246,0.102 0.386,0.12c0.008,0.001 0.014,-0.002 0.017,-0.01l0.045,-0.109c0.004,-0.009 0,-0.016 -0.01,-0.017c-0.105,-0.008 -0.208,-0.029 -0.304,-0.067c0.088,-0.067 0.163,-0.156 0.207,-0.253c0.003,-0.006 0.003,-0.01 0.003,-0.017l-0,-0.086c-0,-0.009 -0.005,-0.014 -0.014,-0.014l-0.272,0l-0,-0.104l0.354,0c0.009,0 0.014,-0.005 0.014,-0.014l-0,-0.1c-0,-0.009 -0.005,-0.014 -0.014,-0.014l-0.354,0l-0,-0.091c-0,-0.009 -0.005,-0.014 -0.014,-0.014l-0.109,-0c-0.009,-0 -0.014,0.005 -0.014,0.014l-0,0.091l-0.354,0c-0.009,0 -0.014,0.005 -0.014,0.014l-0,0.1c-0,0.009 0.005,0.014 0.014,0.014Z" style="fill:#152536;fill-rule:nonzero;"/></g><g transform="matrix(50,0,0,50,154.253,239.651)"><path d="M0.097,0.073c0.158,0.001 0.181,-0.039 0.181,-0.187l0,-0.17l0.064,-0.023c0.008,-0.003 0.011,-0.008 0.011,-0.016l-0,-0.098c-0,-0.008 -0.003,-0.012 -0.009,-0.012l-0.007,0.001c-0.016,0.007 -0.036,0.013 -0.059,0.02l0,-0.138l0.071,0c0.009,0 0.014,-0.004 0.014,-0.014l-0,-0.089c-0,-0.009 -0.005,-0.014 -0.014,-0.014l-0.071,0l0,-0.156c0,-0.01 -0.005,-0.014 -0.014,-0.014l-0.096,-0c-0.009,-0 -0.014,0.004 -0.014,0.014l0,0.156l-0.087,0c-0.009,0 -0.014,0.005 -0.014,0.014l0,0.089c0,0.01 0.005,0.014 0.014,0.014l0.087,0l0,0.169c-0.038,0.009 -0.073,0.017 -0.106,0.023c-0.007,0.001 -0.011,0.005 -0.011,0.013l-0,0.003l0.015,0.098c0.001,0.008 0.005,0.012 0.012,0.012c0.001,-0 0.002,-0 0.004,-0.001c0.029,-0.006 0.058,-0.013 0.086,-0.021l-0,0.137c-0,0.049 -0.011,0.064 -0.089,0.064c-0.012,-0 -0.019,0.002 -0.019,0.01c-0,0.002 -0,0.004 0.001,0.006l0.033,0.098c0.003,0.008 0.008,0.011 0.017,0.012Zm0.19,-0.09l0.07,0.069c0.003,0.003 0.007,0.005 0.01,0.005c0.003,0 0.007,-0.002 0.01,-0.005c0.021,-0.021 0.041,-0.043 0.06,-0.067l0.033,0.078c0.003,0.006 0.007,0.01 0.014,0.01l0.003,-0.001c0.083,-0.01 0.157,-0.034 0.221,-0.069c0.057,0.031 0.124,0.053 0.202,0.066c0.008,0.001 0.014,-0.002 0.017,-0.01l0.034,-0.088c0.004,-0.01 -0,-0.016 -0.011,-0.017c-0.054,-0.004 -0.101,-0.012 -0.142,-0.024c0.04,-0.038 0.072,-0.081 0.095,-0.13c0.003,-0.005 0.004,-0.01 0.004,-0.016l-0,-0.05c-0,-0.009 -0.005,-0.014 -0.014,-0.014l-0.323,-0c0.005,-0.017 0.01,-0.034 0.014,-0.051l0.353,-0c0.009,-0 0.014,-0.005 0.014,-0.014l0,-0.067c0,-0.009 -0.005,-0.014 -0.014,-0.014l-0.336,0c0.003,-0.017 0.005,-0.034 0.006,-0.051l0.309,-0c0.009,-0 0.014,-0.005 0.014,-0.014l0,-0.063c0,-0.01 -0.005,-0.014 -0.014,-0.014l-0.045,0c0.016,-0.03 0.032,-0.065 0.043,-0.101c0.003,-0.009 -0.001,-0.015 -0.01,-0.017l-0.08,-0.017c-0.009,-0.002 -0.014,0.002 -0.016,0.011c-0.008,0.037 -0.024,0.084 -0.044,0.124l-0.367,0c-0.009,0 -0.014,0.004 -0.014,0.014l0,0.063c0,0.009 0.005,0.014 0.014,0.014l0.09,0c-0.001,0.017 -0.003,0.034 -0.005,0.051l-0.102,0c-0.009,0 -0.014,0.005 -0.014,0.014l0,0.067c0,0.009 0.005,0.014 0.014,0.014l0.083,0c-0.029,0.111 -0.085,0.213 -0.176,0.295c-0.004,0.003 -0.005,0.006 -0.005,0.01c0,0.003 0.001,0.006 0.005,0.009Zm0.066,-0.77l0.025,0.078c0.003,0.007 0.008,0.011 0.016,0.011l0.035,0.001c0.159,0 0.377,-0.014 0.499,-0.035c0.005,-0.001 0.008,-0.004 0.008,-0.009c0,-0.002 -0.001,-0.005 -0.002,-0.008l-0.037,-0.073c-0.003,-0.006 -0.007,-0.009 -0.013,-0.009l-0.004,-0c-0.113,0.021 -0.306,0.029 -0.469,0.029c-0.016,0 -0.031,0 -0.046,-0.001c-0.008,0 -0.013,0.004 -0.013,0.011c0,0.001 0,0.003 0.001,0.005Zm0.064,0.126c0.016,0.024 0.03,0.053 0.039,0.078c0.002,0.006 0.006,0.01 0.013,0.01c0.001,0 0.002,0 0.004,-0.001l0.076,-0.016c0.007,-0.001 0.011,-0.005 0.011,-0.01c0,-0.002 0,-0.005 -0.001,-0.007c-0.013,-0.028 -0.029,-0.057 -0.046,-0.079c-0.003,-0.005 -0.008,-0.007 -0.013,-0.007l-0.005,0l-0.071,0.014c-0.007,0.002 -0.01,0.005 -0.01,0.01c0,0.002 0.001,0.005 0.003,0.008Zm0.033,0.629c0.029,-0.04 0.054,-0.084 0.076,-0.129c0.023,0.035 0.051,0.067 0.083,0.096c-0.046,0.016 -0.1,0.027 -0.159,0.033Zm0.148,-0.634c0.014,0.026 0.026,0.055 0.033,0.08c0.002,0.008 0.006,0.011 0.013,0.011l0.004,0l0.074,-0.013c0.007,-0.002 0.011,-0.006 0.011,-0.012l-0.001,-0.005c-0.01,-0.029 -0.025,-0.061 -0.04,-0.085c-0.003,-0.005 -0.008,-0.008 -0.013,-0.008l-0.005,0.001l-0.069,0.013c-0.006,0.002 -0.01,0.005 -0.01,0.01c0,0.003 0.001,0.005 0.003,0.008Zm0.022,0.469l0.165,0c-0.02,0.032 -0.046,0.059 -0.078,0.082c-0.035,-0.023 -0.063,-0.051 -0.087,-0.082Z" style="fill:#152536;fill-rule:nonzero;"/></g><g transform="matrix(50,0,0,50,204.253,239.651)"><path d="M0.671,-0.408l0.038,0.091c0.003,0.007 0.009,0.011 0.017,0.011c0.161,0.003 0.189,-0.038 0.189,-0.149l0,-0.365c0,-0.009 -0.005,-0.014 -0.014,-0.014l-0.092,-0c-0.009,-0 -0.014,0.005 -0.014,0.014l0,0.347c0,0.036 -0.012,0.051 -0.075,0.051c-0.01,0 -0.022,0 -0.036,-0.001c-0.009,-0.001 -0.014,0.003 -0.014,0.009c0,0.002 0,0.004 0.001,0.006Zm-0.547,0.262l0.308,0l0,0.08l-0.365,0c-0.009,0 -0.014,0.005 -0.014,0.014l-0,0.085c-0,0.009 0.005,0.014 0.014,0.014l0.864,0c0.009,0 0.014,-0.005 0.014,-0.014l0,-0.085c0,-0.009 -0.005,-0.014 -0.014,-0.014l-0.367,0l0,-0.08l0.311,0c0.009,0 0.014,-0.005 0.014,-0.014l0,-0.08c0,-0.009 -0.005,-0.014 -0.014,-0.014l-0.311,0l0,-0.064c0,-0.009 -0.005,-0.014 -0.014,-0.014l-0.044,0l0,-0.161l0.073,0c0.009,0 0.014,-0.005 0.014,-0.014l0,-0.076c0,-0.009 -0.005,-0.014 -0.014,-0.014l-0.073,0l0,-0.103l0.061,0c0.009,0 0.014,-0.005 0.014,-0.014l0,-0.079c0,-0.009 -0.005,-0.014 -0.014,-0.014l-0.463,0c-0.009,0 -0.014,0.005 -0.014,0.014l0,0.079c0,0.009 0.005,0.014 0.014,0.014l0.074,0l0,0.072c0,0.011 -0.001,0.021 -0.001,0.031l-0.095,0c-0.009,0 -0.014,0.005 -0.014,0.014l0,0.076c0,0.009 0.005,0.014 0.014,0.014l0.088,0c-0.013,0.051 -0.04,0.091 -0.093,0.123c-0.005,0.003 -0.007,0.006 -0.007,0.009c0,0.004 0.002,0.007 0.007,0.01l0.085,0.05c0.003,0.002 0.006,0.002 0.009,0.002c0.004,0 0.008,-0.001 0.011,-0.004c0.061,-0.049 0.091,-0.114 0.104,-0.19l0.1,0l0,0.161c0,0.009 0.005,0.014 0.014,0.014l0.032,0l0,0.064l-0.308,0c-0.009,0 -0.014,0.005 -0.014,0.014l0,0.08c0,0.009 0.005,0.014 0.014,0.014Zm0.494,-0.63l0,0.3c0,0.009 0.005,0.014 0.014,0.014l0.086,0c0.009,0 0.014,-0.005 0.014,-0.014l0,-0.3c0,-0.009 -0.005,-0.014 -0.014,-0.014l-0.086,0c-0.009,0 -0.014,0.005 -0.014,0.014Zm-0.232,0.179l-0.092,0c0.001,-0.01 0.001,-0.02 0.001,-0.031l0,-0.072l0.091,-0l0,0.103Z" style="fill:#152536;fill-rule:nonzero;"/></g><g transform="matrix(50,0,0,50,254.253,239.651)"><path d="M0.345,-0.3l0,-0.455c0,-0.009 -0.005,-0.014 -0.014,-0.014l-0.114,0c-0.009,0 -0.014,0.005 -0.014,0.014l0,0.455c0,0.009 0.005,0.014 0.014,0.014l0.114,-0c0.009,-0 0.014,-0.005 0.014,-0.014Zm-0.097,0.214c-0,0.003 0.001,0.005 0.003,0.008l0.069,0.117c0.004,0.006 0.009,0.008 0.015,0.008l0.003,-0c0.328,-0.04 0.466,-0.22 0.466,-0.528l-0.001,-0.277c0,-0.009 -0.005,-0.014 -0.014,-0.014l-0.116,0c-0.009,0 -0.014,0.005 -0.014,0.014c0,0.074 0.001,0.151 0.001,0.225l0,0.054c-0.002,0.238 -0.097,0.375 -0.4,0.384c-0.008,0 -0.012,0.004 -0.012,0.009Z" style="fill:#152536;fill-rule:nonzero;"/></g><g transform="matrix(50,0,0,50,304.253,239.651)"><path d="M0.119,-0.311l0.762,0.001c0.008,0 0.012,-0.004 0.012,-0.012l0,-0.115c0,-0.008 -0.004,-0.012 -0.012,-0.012l-0.762,0c-0.008,0 -0.012,0.004 -0.012,0.012l0,0.114c0,0.008 0.004,0.012 0.012,0.012Z" style="fill:#152536;fill-rule:nonzero;"/></g><g transform="matrix(50,0,0,50,354.253,239.651)"><path d="M0.258,0.049c0.355,-0.096 0.569,-0.35 0.623,-0.714c0.001,-0.008 -0.002,-0.014 -0.009,-0.018l-0.022,-0.011l0.008,-0.002c0.007,-0.002 0.01,-0.006 0.01,-0.012c0,-0.002 0,-0.004 -0.001,-0.006c-0.018,-0.043 -0.049,-0.097 -0.078,-0.133c-0.004,-0.005 -0.008,-0.007 -0.013,-0.007l-0.006,0.001l-0.053,0.016c-0.007,0.001 -0.01,0.005 -0.01,0.009c0,0.003 0.001,0.006 0.003,0.009c0.018,0.025 0.035,0.053 0.049,0.081l-0.041,-0.021c-0.006,-0.003 -0.01,-0.004 -0.016,-0.004l-0.002,0l-0.331,0.001c-0.008,0 -0.013,0.003 -0.016,0.011c-0.036,0.101 -0.127,0.246 -0.26,0.323c-0.005,0.003 -0.008,0.006 -0.008,0.01c0,0.003 0.002,0.006 0.005,0.009l0.077,0.075c0.004,0.004 0.008,0.005 0.011,0.005c0.003,0 0.006,-0.001 0.009,-0.002c0.034,-0.022 0.069,-0.05 0.101,-0.083c0.096,0.04 0.19,0.086 0.27,0.134c-0.099,0.102 -0.233,0.173 -0.391,0.199c-0.007,0.001 -0.011,0.004 -0.011,0.009c0,0.002 0.001,0.005 0.003,0.008l0.08,0.106c0.004,0.005 0.008,0.008 0.012,0.008l0.001,0l0.006,-0.001Zm0.11,-0.558c0.031,-0.043 0.057,-0.088 0.075,-0.131l0.292,0c-0.015,0.095 -0.047,0.181 -0.096,0.257c-0.082,-0.047 -0.178,-0.09 -0.271,-0.126Zm0.468,-0.339c0,0.002 0.001,0.005 0.003,0.008c0.03,0.042 0.057,0.097 0.072,0.141c0.002,0.007 0.006,0.01 0.012,0.01c0.001,0 0.003,0 0.005,-0.001l0.058,-0.018c0.007,-0.002 0.01,-0.006 0.01,-0.011c0,-0.002 0,-0.004 -0.001,-0.006c-0.018,-0.049 -0.05,-0.105 -0.078,-0.143c-0.004,-0.004 -0.008,-0.006 -0.013,-0.006c-0.002,-0 -0.004,-0 -0.006,0.001l-0.053,0.015c-0.006,0.002 -0.009,0.005 -0.009,0.01Z" style="fill:#152536;fill-rule:nonzero;"/></g><g transform="matrix(50,0,0,50,402.753,239.651)"><path d="M0.119,-0.311l0.762,0.001c0.008,0 0.012,-0.004 0.012,-0.012l0,-0.115c0,-0.008 -0.004,-0.012 -0.012,-0.012l-0.762,0c-0.008,0 -0.012,0.004 -0.012,0.012l0,0.114c0,0.008 0.004,0.012 0.012,0.012Z" style="fill:#152536;fill-rule:nonzero;"/></g><g transform="matrix(50,0,0,50,452.753,239.651)"><path d="M0.332,-0.327l0.061,-0.093c0.002,-0.003 0.003,-0.006 0.003,-0.008c0,-0.004 -0.002,-0.008 -0.006,-0.011c-0.063,-0.049 -0.156,-0.095 -0.237,-0.117c-0.008,-0.002 -0.014,0.001 -0.018,0.008l-0.053,0.088c-0.001,0.003 -0.002,0.005 -0.002,0.008c-0,0.004 0.003,0.008 0.009,0.01c0.077,0.026 0.165,0.071 0.224,0.118c0.003,0.002 0.006,0.004 0.009,0.004c0.004,0 0.007,-0.003 0.01,-0.007Zm-0.18,0.227c-0,0.002 -0,0.004 0.001,0.007l0.041,0.11c0.003,0.007 0.007,0.01 0.014,0.01l0.003,0c0.401,-0.059 0.604,-0.29 0.704,-0.597c0.003,-0.007 0,-0.012 -0.007,-0.016l-0.098,-0.061c-0.003,-0.002 -0.005,-0.003 -0.008,-0.003c-0.004,0 -0.008,0.004 -0.01,0.01c-0.096,0.288 -0.252,0.485 -0.629,0.53c-0.007,0.001 -0.011,0.005 -0.011,0.01Zm0.046,-0.573c0,0.004 0.003,0.008 0.009,0.01c0.079,0.026 0.17,0.073 0.231,0.12c0.003,0.002 0.006,0.004 0.009,0.004c0.004,0 0.007,-0.003 0.01,-0.007l0.063,-0.086c0.003,-0.003 0.004,-0.006 0.004,-0.009c0,-0.003 -0.002,-0.007 -0.006,-0.01c-0.069,-0.053 -0.153,-0.095 -0.246,-0.121c-0.008,-0.003 -0.014,0 -0.018,0.007l-0.054,0.084c-0.002,0.003 -0.002,0.005 -0.002,0.008Z" style="fill:#152536;fill-rule:nonzero;"/></g><g transform="matrix(50,0,0,50,502.753,239.651)"><path d="M0.36,-0.33l0,-0.003c-0.011,-0.086 -0.04,-0.181 -0.079,-0.253c-0.003,-0.005 -0.007,-0.008 -0.012,-0.008c-0.002,0 -0.003,0 -0.005,0.001l-0.089,0.021c-0.007,0.001 -0.01,0.005 -0.01,0.01c0,0.002 0.001,0.005 0.002,0.007c0.036,0.075 0.062,0.17 0.072,0.254c0.001,0.007 0.005,0.011 0.011,0.011l0.005,0l0.094,-0.026c0.007,-0.002 0.011,-0.007 0.011,-0.014Zm-0.121,0.27c0,0.003 0.002,0.006 0.005,0.009l0.079,0.09c0.004,0.005 0.008,0.007 0.013,0.007c0.002,0 0.003,0 0.005,-0.001c0.332,-0.073 0.48,-0.28 0.509,-0.648c-0,-0.009 -0.004,-0.015 -0.013,-0.016l-0.106,-0.013c-0.009,-0.001 -0.015,0.004 -0.015,0.013c-0.009,0.327 -0.143,0.494 -0.466,0.55c-0.007,0.001 -0.011,0.005 -0.011,0.009Zm0.15,-0.541c0,0.002 0.001,0.004 0.002,0.007c0.034,0.073 0.057,0.17 0.064,0.253c0,0.008 0.004,0.012 0.011,0.012c0.001,0 0.003,0 0.005,-0.001l0.094,-0.024c0.008,-0.002 0.011,-0.007 0.011,-0.014l0,-0.002c-0.006,-0.085 -0.035,-0.185 -0.067,-0.256c-0.003,-0.005 -0.007,-0.008 -0.012,-0.008c-0.002,0 -0.004,0 -0.005,0.001l-0.092,0.021c-0.007,0.002 -0.011,0.005 -0.011,0.011Z" style="fill:#152536;fill-rule:nonzero;"/></g><g transform="matrix(50,0,0,50,552.753,239.651)"><path d="M0.251,0.041c0.377,-0.075 0.569,-0.303 0.611,-0.648c0.065,0 0.118,-0.052 0.118,-0.118c0,-0.064 -0.053,-0.117 -0.118,-0.117c-0.065,0 -0.117,0.052 -0.117,0.117c0,0.009 0.001,0.018 0.003,0.026l-0.62,0.001c-0.01,-0 -0.014,0.005 -0.014,0.014l0,0.107c0,0.009 0.004,0.014 0.013,0.014c0.17,-0.001 0.399,-0.004 0.582,-0.006c-0.033,0.191 -0.145,0.41 -0.524,0.475c-0.008,0.001 -0.012,0.005 -0.012,0.011c0,0.002 0.001,0.004 0.002,0.007l0.058,0.109c0.003,0.006 0.007,0.009 0.013,0.009l0.001,0l0.004,-0.001Zm0.559,-0.766c0,-0.028 0.024,-0.051 0.052,-0.051c0.029,0 0.052,0.023 0.052,0.051c-0,0.029 -0.023,0.053 -0.052,0.053c-0.028,-0 -0.052,-0.024 -0.052,-0.053Z" style="fill:#152536;fill-rule:nonzero;"/></g></g></svg>